<?xml version="1.0" encoding="UTF-8"?>
<svg width="37px" height="36px" viewBox="0 0 37 36" version="1.1" xmlns="http://www.w3.org/2000/svg" xmlns:xlink="http://www.w3.org/1999/xlink">
    <!-- Generator: Sketch 50.2 (55047) - http://www.bohemiancoding.com/sketch -->
    <title>Group 8</title>
    <desc>Created with Sketch.</desc>
    <defs></defs>
    <g id="Welcome" stroke="none" stroke-width="1" fill="none" fill-rule="evenodd">
        <g id="add_office" transform="translate(-245.000000, -545.000000)">
            <g id="Group-8" transform="translate(245.000000, 545.000000)">
                <circle id="Oval-3" fill="#EEEEEE" cx="18.3619797" cy="18" r="18"></circle>
                <g id="Group" transform="translate(5.361980, 7.000000)">
                    <path d="M18.1536462,0.0722864521 L7.56399126,0.0722864521 C6.47049063,0.0722864521 5.57854406,0.963043755 5.57854406,2.05773365 L5.57854406,19.2658907 C5.57854406,20.3608391 6.47049063,21.2515964 7.56399126,21.2515964 L18.1536462,21.2515964 C19.2497839,21.2515964 20.139352,20.3608391 20.139352,19.2658907 L20.139352,2.05773365 C20.139352,0.963043755 19.2497839,0.0722864521 18.1536462,0.0722864521 Z M18.8155482,19.2658907 C18.8155482,19.6304771 18.5182326,19.9277926 18.1536462,19.9277926 L7.56399126,19.9277926 C7.19945658,19.9277926 6.90234789,19.6304771 6.90234789,19.2658907 L6.90234789,2.05773365 C6.90234789,1.69319897 7.19966341,1.39609028 7.56399126,1.39609028 L18.1536462,1.39609028 C18.5182326,1.39609028 18.8155482,1.6934058 18.8155482,2.05773365 L18.8155482,19.2658907 Z M17.4917443,16.6185416 C17.4917443,16.9843172 17.1958766,17.2804435 16.830101,17.2804435 L8.88779509,17.2804435 C8.52201943,17.2804435 8.22589317,16.9843172 8.22589317,16.6185416 L8.22589317,4.7053413 C8.22589317,4.33930711 8.52201943,4.04343939 8.88779509,4.04343939 L16.830101,4.04343939 C17.1958766,4.04343939 17.4917443,4.33930711 17.4917443,4.7053413 L17.4917443,16.6185416 Z M16.168199,2.71963556 C16.168199,3.08541122 15.8720728,3.38153748 15.5062971,3.38153748 L10.2115989,3.38153748 C9.84556472,3.38153748 9.549697,3.08541122 9.549697,2.71963556 C9.549697,2.35385991 9.84556472,2.05773365 10.2115989,2.05773365 L15.5062971,2.05773365 C15.8720728,2.05773365 16.168199,2.35385991 16.168199,2.71963556 Z" id="001-computer-1" stroke="#EEEEEE" stroke-width="0.5" fill="#777777"></path>
                    <g id="Group-6" transform="translate(0.000000, 3.825287)" fill="#9B9B9B">
                        <path d="M21.9674598,1.4483961 L21.2273563,2.05833805 C21.354592,2.21508794 24.285569,5.96438617 21.1776724,11.7295662 L22.0181897,12.1874923 C25.4448103,5.832584 22.1118793,1.62535967 21.9674598,1.4483961 Z" id="Fill-1"></path>
                        <path d="M23.830569,0.0740917536 L23.0901667,0.68373313 C23.2539368,0.884817849 27.0379828,5.71047538 23.0405575,13.1241594 L23.8810747,13.5829121 C28.1969253,5.58040152 23.8743506,0.128646128 23.830569,0.0740917536 Z" id="Fill-3"></path>
                        <path d="M4.5683046,2.05721089 L3.82782759,1.4483961 C3.68452874,1.62535967 0.349954023,5.832584 3.77739655,12.1874923 L4.61791379,11.7284391 C1.50882184,5.96318387 4.44099425,2.21388564 4.5683046,2.05721089 Z" id="Fill-4"></path>
                        <path d="M2.70512069,0.682831405 L1.96501724,0.0740917536 C1.92123563,0.127819547 -2.40044253,5.57957494 1.91451149,13.5829121 L2.75502874,13.1241594 C-1.24239655,5.71047538 2.54172414,0.884817849 2.70512069,0.682831405 Z" id="Fill-5"></path>
                    </g>
                    <circle id="Oval" fill="#777777" cx="12.8344463" cy="18.6710454" r="1"></circle>
                </g>
            </g>
        </g>
    </g>
</svg>