<?xml version="1.0" encoding="UTF-8"?>
<svg width="27px" height="23px" viewBox="0 0 27 23" version="1.1" xmlns="http://www.w3.org/2000/svg" xmlns:xlink="http://www.w3.org/1999/xlink">
    <!-- Generator: Sketch 50.2 (55047) - http://www.bohemiancoding.com/sketch -->
    <title>001-business</title>
    <desc>Created with Sketch.</desc>
    <defs>
        <polygon id="path-1" points="0.00384423173 0.059970015 0.00384423173 23.9404292 28.0866037 23.9404292 28.0866037 0.059970015 0.00384423173 0.059970015"></polygon>
    </defs>
    <g id="Welcome" stroke="none" stroke-width="1" fill="none" fill-rule="evenodd">
        <g id="access_control_employees" transform="translate(-1196.000000, -195.000000)">
            <g id="001-business" transform="translate(1195.543421, 194.235294)">
                <g id="Group-3">
                    <mask id="mask-2" fill="white">
                        <use xlink:href="#path-1"></use>
                    </mask>
                    <g id="Clip-2"></g>
                    <path d="M24.5385641,5.17837235 L17.6101693,5.17837235 C17.688976,4.94214431 17.715309,4.70610848 17.715309,4.44354746 L17.715309,2.55397942 C17.715309,1.68806622 17.006753,0.979510245 16.1405195,0.979510245 L11.9416574,0.979510245 C11.0757442,0.979510245 10.3671882,1.68806622 10.3671882,2.55397942 L10.3671882,4.44354746 C10.3671882,4.67983957 10.4194698,4.94214431 10.4720717,5.17837235 L3.54393316,5.17837235 C2.10061636,5.17837235 0.91954023,6.35944848 0.91954023,7.80276528 L0.91954023,20.3996079 C0.91954023,21.8429888 2.10061636,23.0238086 3.54393316,23.0238086 L24.5385641,23.0238086 C25.9818809,23.0238086 27.162957,21.8429888 27.162957,20.3996079 L27.162957,7.80276528 C27.162957,6.35944848 25.9818809,5.17837235 24.5385641,5.17837235 Z M11.4168557,2.55397942 C11.4168557,2.26540576 11.6530837,2.02917772 11.9416574,2.02917772 L16.1405195,2.02917772 C16.4293494,2.02917772 16.6656415,2.26540576 16.6656415,2.55397942 L16.6656415,4.44354746 C16.6656415,4.81099194 16.5342329,5.15210344 16.3242738,5.41466446 L16.3242738,5.44093338 L14.4611669,7.77649637 C14.3298223,7.96018657 14.1461321,7.96018657 14.0675175,7.96018657 C13.9886467,7.96018657 13.8049565,7.93391766 13.6738041,7.77649637 L11.7842361,5.44093338 C11.548008,5.15210344 11.4168557,4.78472302 11.4168557,4.44354746 L11.4168557,2.55397942 Z M26.1130332,20.3996079 C26.1130332,21.2655852 25.4044772,21.9741411 24.5385641,21.9741411 L3.54393316,21.9741411 C2.67769961,21.9741411 1.9692077,21.2655852 1.9692077,20.3996079 L1.9692077,7.80276528 C1.9692077,6.93678802 2.67769961,6.22829611 3.54393316,6.22829611 L10.8919899,6.22829611 C10.9445918,6.22829611 10.9968734,6.22829611 11.0494112,6.20202719 L12.8076346,8.43270672 C13.0964646,8.80015121 13.5427158,9.03612296 14.0412486,9.03612296 C14.5135125,9.03612296 14.9597637,8.82616384 15.2746063,8.43270672 L17.033022,6.22829611 L24.5385641,6.22829611 C25.4044772,6.22829611 26.1130332,6.93678802 26.1130332,7.80276528 L26.1130332,20.3996079 Z" id="Fill-1" fill="#9B9B9B" mask="url(#mask-2)"></path>
                </g>
                <path d="M13.4113072,16.0430682 C12.9653122,14.5997514 12.0467971,14.0486167 10.9445918,13.7075052 C11.4168557,13.0512949 11.6794167,12.2379195 11.6794167,11.4768257 C11.6794167,9.74467894 10.2620485,8.32763106 8.530158,8.32763106 C6.79801125,8.32763106 5.38096336,9.74467894 5.38096336,11.4768257 C5.38096336,12.2379195 5.66953703,13.0512949 6.14205718,13.7337741 C5.11840234,14.0749497 4.22615615,14.6260203 3.77996899,16.0694012 L3.33397404,17.6701393 C3.25510322,17.9589692 3.30764105,18.2475429 3.46506234,18.4837709 C3.64881662,18.720063 3.91131357,18.8512154 4.19988724,18.8512154 L12.9913249,18.8512154 C13.2801548,18.8512154 13.5427158,18.720063 13.726406,18.4837709 C13.9100962,18.2475429 13.9361089,17.9589692 13.8575584,17.6701393 L13.4113072,16.0430682 Z M8.530158,9.37723446 C9.68470893,9.37723446 10.6294929,10.3220185 10.6294929,11.4768257 C10.6294929,12.6578377 9.65863222,14.1012186 8.530158,14.1012186 C8.13650867,14.1012186 7.7953331,13.9437973 7.48023424,13.6812363 L7.37541486,13.5763528 C6.82428017,13.0512949 6.43063084,12.2116506 6.43063084,11.4768257 C6.43063084,10.3220185 7.37541486,9.37723446 8.530158,9.37723446 Z M4.38357744,17.775279 L4.77729084,16.3581671 C5.09213342,15.2819744 5.74834378,14.8885814 6.95543254,14.5997514 C7.42795269,14.9408629 7.95275439,15.1508861 8.530158,15.1508861 C9.13357424,15.1508861 9.65863222,14.9408629 10.1309602,14.5734825 C11.4431246,14.914594 12.0728097,15.2559618 12.4141775,16.3318982 L12.8076346,17.775279 L4.38357744,17.775279 Z" id="Fill-4" fill="#9B9B9B"></path>
                <path d="M13.2538859,4.12870488 L14.8286113,4.12870488 C15.117185,4.12870488 15.353413,3.89247684 15.353413,3.60390318 C15.353413,3.31507323 15.117185,3.07910147 14.8286113,3.07910147 L13.2538859,3.07910147 C12.9653122,3.07910147 12.7290201,3.31507323 12.7290201,3.60390318 C12.7290201,3.89247684 12.9653122,4.12870488 13.2538859,4.12870488 Z" id="Fill-5" fill="#9B9B9B"></path>
                <path d="M23.4888966,11.4768257 L15.0909161,11.4768257 C14.8023424,11.4768257 14.5660503,11.7130537 14.5660503,12.0016274 C14.5660503,12.2904573 14.8023424,12.5264932 15.0909161,12.5264932 L23.4888966,12.5264932 C23.7774702,12.5264932 24.0136983,12.2904573 24.0136983,12.0016274 C24.0136983,11.7130537 23.7774702,11.4768257 23.4888966,11.4768257 Z" id="Fill-6" fill="#9B9B9B"></path>
                <path d="M18.5026717,13.5763528 L15.0909161,13.5763528 C14.8023424,13.5763528 14.5660503,13.8123887 14.5660503,14.1012186 C14.5660503,14.3897923 14.8023424,14.6260203 15.0909161,14.6260203 L18.5026717,14.6260203 C18.7912454,14.6260203 19.0274734,14.3897923 19.0274734,14.1012186 C19.0274734,13.8123887 18.7912454,13.5763528 18.5026717,13.5763528 Z" id="Fill-7" fill="#9B9B9B"></path>
                <path d="M21.6518664,13.5763528 L20.8645036,13.5763528 C20.5756737,13.5763528 20.3396379,13.8123887 20.3396379,14.1012186 C20.3396379,14.3897923 20.5756737,14.6260203 20.8645036,14.6260203 L21.6518664,14.6260203 C21.94044,14.6260203 22.1766681,14.3897923 22.1766681,14.1012186 C22.1766681,13.8123887 21.94044,13.5763528 21.6518664,13.5763528 Z" id="Fill-8" fill="#9B9B9B"></path>
            </g>
        </g>
    </g>
</svg>