<?xml version="1.0" encoding="UTF-8"?>
<svg width="37px" height="21px" viewBox="0 0 37 21" version="1.1" xmlns="http://www.w3.org/2000/svg" xmlns:xlink="http://www.w3.org/1999/xlink">
    <!-- Generator: Sketch 50.2 (55047) - http://www.bohemiancoding.com/sketch -->
    <title>screen_bookcab</title>
    <desc>Created with Sketch.</desc>
    <defs>
        <polygon id="path-1" points="0.00420151721 0.0607119238 17.8998952 0.0607119238 35.7955889 0.0607119238 35.7955889 17.3896596 7.58037604 17.3896596 0.00420151721 17.3896596"></polygon>
        <polygon id="path-3" points="0.00420151721 1.22782338 0.00420151721 0.032701809 35.7334137 0.032701809 35.7334137 1.22782338 0.00420151721 1.22782338"></polygon>
    </defs>
    <g id="Welcome" stroke="none" stroke-width="1" fill="none" fill-rule="evenodd">
        <g id="add_group_details_config" transform="translate(-794.000000, -1279.000000)">
            <g id="screen_bookcab" transform="translate(794.361980, 1279.125000)">
                <path d="M7.17058938,17.3896596 C6.51326201,17.3896596 5.97546781,16.8518654 5.97546781,16.194538 C5.97546781,15.5372107 6.51326201,14.9994165 7.17058938,14.9994165 C7.82791675,14.9994165 8.36571095,15.5372107 8.36571095,16.194538 C8.36571095,16.8518654 7.82791675,17.3896596 7.17058938,17.3896596 Z" id="Fill-2" fill="#777777"></path>
                <g id="Group-7">
                    <mask id="mask-2" fill="white">
                        <use xlink:href="#path-1"></use>
                    </mask>
                    <g id="Clip-5"></g>
                    <path d="M28.6823575,17.3896596 C28.0250301,17.3896596 27.4872359,16.8518654 27.4872359,16.194538 C27.4872359,15.5372107 28.0250301,14.9994165 28.6823575,14.9994165 C29.3396849,14.9994165 29.8774791,15.5372107 29.8774791,16.194538 C29.8774791,16.8518654 29.3396849,17.3896596 28.6823575,17.3896596 Z" id="Fill-4" fill="#777777" mask="url(#mask-2)"></path>
                    <path d="M32.8054464,15.5970123 L33.4029722,15.5970123 C34.0602996,15.5970123 34.5980938,15.0592181 34.5980938,14.4018907 L34.5980938,9.38247812 C34.5980938,9.20321338 34.4785606,9.08368022 34.2992959,9.08368022 L31.8493912,9.08368022 C29.6384128,9.08368022 27.6067691,7.94836024 26.4714491,6.09598133 L24.3800039,2.74968294 C23.9019413,1.7936277 22.945886,1.2558335 21.9300292,1.2558335 L9.74002723,1.2558335 C8.72424042,1.2558335 7.76811515,1.7936277 7.23032095,2.68995137 L4.24262206,7.5300992 C3.70482785,8.42642287 2.62923945,9.02394865 1.55365104,9.02394865 C1.43411788,9.02394865 1.37438631,9.08368022 1.31458471,9.14348181 C1.19512157,9.20321338 1.19512157,9.26294495 1.19512157,9.32274655 L1.19512157,14.7006886 C1.19512157,15.1786812 1.61338261,15.5970123 2.09144524,15.5970123 L3.04750049,15.5970123 C3.34629839,13.5652986 5.07914414,12.0117176 7.17058938,12.0117176 C9.26203462,12.0117176 10.9948804,13.5652986 11.2936783,15.5970123 L24.4995371,15.5970123 C24.7982649,13.5652986 26.5311807,12.0117176 28.6226259,12.0117176 C30.7140012,12.0117176 32.5066485,13.5652986 32.8054464,15.5970123 Z M33.4627738,16.7920638 L31.6701264,16.7920638 L31.6701264,16.194538 C31.6701264,14.5214238 30.3554717,13.2067691 28.6823575,13.2067691 C27.0092433,13.2067691 25.6945886,14.5214238 25.6945886,16.194538 L25.6945886,16.7920638 L10.1583583,16.7920638 L10.1583583,16.194538 C10.1583583,14.5214238 8.84370356,13.2067691 7.17058938,13.2067691 C5.4974752,13.2067691 4.18282046,14.5214238 4.18282046,16.194538 L4.18282046,16.7920638 L2.09144524,16.7920638 C0.956055242,16.7920638 0,15.8360086 0,14.7006886 L0,9.32274655 C0,8.90441548 0.179264734,8.54588601 0.418261039,8.24715814 C0.717058938,8.00809181 1.07558841,7.82882708 1.49384945,7.82882708 C2.21090838,7.82882708 2.86823575,7.47029761 3.22676522,6.87277183 L6.21453414,2.032624 C6.99132465,0.837502431 8.30590936,0.0607119238 9.74002723,0.0607119238 L21.9300292,0.0607119238 C23.3641471,0.0607119238 24.7385334,0.837502431 25.4555923,2.032624 L27.4872359,5.37892239 C28.4433612,6.87277183 30.1164754,7.82882708 31.8493912,7.82882708 L34.2992959,7.82882708 C35.135888,7.82882708 35.7932153,8.48615444 35.7932153,9.32274655 L35.7932153,14.4018907 C35.8529469,15.7164754 34.7773585,16.7920638 33.4627738,16.7920638 L33.4627738,16.7920638 Z" id="Fill-6" stroke="#F4F7F8" stroke-width="0.4" fill="#777777" mask="url(#mask-2)"></path>
                </g>
                <path d="M7.15791553,13.2067691 C5.48480135,13.2067691 4.17014661,14.5214238 4.17014661,16.194538 C4.17014661,17.8676522 5.48480135,19.1823069 7.15791553,19.1823069 C8.83102971,19.1823069 10.1456844,17.8676522 10.1456844,16.194538 C10.1456844,14.5214238 8.83102971,13.2067691 7.15791553,13.2067691 Z M7.15791553,20.3773585 C4.82747398,20.3773585 2.97509507,18.5249796 2.97509507,16.194538 C2.97509507,13.8640965 4.82747398,12.0117176 7.15791553,12.0117176 C9.48835708,12.0117176 11.340736,13.8640965 11.340736,16.194538 C11.340736,18.5249796 9.48835708,20.3773585 7.15791553,20.3773585 L7.15791553,20.3773585 Z" id="Fill-3" stroke="#F4F7F8" stroke-width="0.4" fill="#777777"></path>
                <path d="M28.6823575,13.2067691 C27.0092433,13.2067691 25.6945886,14.5214238 25.6945886,16.194538 C25.6945886,17.8676522 27.0092433,19.1823069 28.6823575,19.1823069 C30.3554717,19.1823069 31.6701264,17.8676522 31.6701264,16.194538 C31.6701264,14.5214238 30.3554717,13.2067691 28.6823575,13.2067691 Z M28.6823575,20.3773585 C26.351916,20.3773585 24.4995371,18.5249796 24.4995371,16.194538 C24.4995371,13.8640965 26.351916,12.0117176 28.6823575,12.0117176 C31.0127991,12.0117176 32.865178,13.8640965 32.865178,16.194538 C32.865178,18.5249796 31.0127991,20.3773585 28.6823575,20.3773585 L28.6823575,20.3773585 Z" id="Fill-3" stroke="#F4F7F8" stroke-width="0.4" fill="#777777"></path>
                <path d="M20.9142424,10.0428166 L17.9264734,10.0428166 C17.567944,10.0428166 17.3289477,9.83900717 17.3289477,9.53335276 C17.3289477,9.22769835 17.567944,9.02394865 17.9264734,9.02394865 L20.9142424,9.02394865 C21.2727718,9.02394865 21.5117681,9.22769835 21.5117681,9.53335276 C21.5117681,9.83900717 21.2727718,10.0428166 20.9142424,10.0428166" id="Fill-10" fill="#777777"></path>
                <path d="M9.80635773,3.21698113 C9.63918114,3.21698113 9.48306548,3.3005317 9.39033259,3.43963103 L7.58631733,6.14565392 C7.53156149,6.22778768 7.50234247,6.32429153 7.50234247,6.42300402 C7.50234247,6.6991464 7.7262001,6.92300402 8.00234247,6.92300402 L23.873737,6.92300402 C23.9724495,6.92300402 24.0689533,6.89378501 24.1510871,6.83902917 C24.3808514,6.68585294 24.4429384,6.37541827 24.2897621,6.14565392 L22.4857469,3.43963103 C22.393014,3.3005317 22.2368983,3.21698113 22.0697217,3.21698113 L9.80635773,3.21698113 Z" id="Rectangle-4" stroke="#777777" fill-opacity="0" fill="#FFFFFF"></path>
                <polygon id="Fill-9" fill="#777777" points="15.6226415 6.98264165 16.6415094 6.98264165 16.6415094 3.39622642 15.6226415 3.39622642"></polygon>
                <path d="M20.7169811,10.816596 L20.7169811,9.62147442 C20.7169811,9.26294495 20.9207905,9.02394865 21.2264449,9.02394865 C21.5320994,9.02394865 21.7358491,9.26294495 21.7358491,9.62147442 L21.7358491,10.816596 C21.7358491,11.1751255 21.5320994,11.4141218 21.2264449,11.4141218 C20.9207905,11.4141218 20.7169811,11.1751255 20.7169811,10.816596 Z" id="Fill-11" fill="#777777"></path>
                <g id="Group-15" transform="translate(0.000000, 10.783894)">
                    <mask id="mask-4" fill="white">
                        <use xlink:href="#path-3"></use>
                    </mask>
                    <g id="Clip-13"></g>
                    <path d="M32.1859327,1.05156973 C31.8274032,1.05156973 31.5884069,0.84776033 31.5884069,0.542105922 C31.5884069,0.236451515 31.8274032,0.032701809 32.1859327,0.032701809 L34.5761758,0.032701809 C34.9347053,0.032701809 35.0541684,0.236451515 35.0541684,0.542105922 C35.0541684,0.84776033 34.9347053,1.05156973 34.5761758,1.05156973 L32.1859327,1.05156973 Z" id="Fill-12" fill="#777777" mask="url(#mask-4)"></path>
                    <path d="M3.6670142,1.05156973 L1.27677106,1.05156973 C0.918241587,1.05156973 0.679245283,0.84776033 0.679245283,0.542105922 C0.679245283,0.236451515 0.918241587,0.032701809 1.27677106,0.032701809 L3.6670142,0.032701809 C4.02554367,0.032701809 4.26453997,0.236451515 4.26453997,0.542105922 C4.26453997,0.84776033 4.02554367,1.05156973 3.6670142,1.05156973 L-0.306221178,0.964941627" id="Fill-14" fill="#777777" mask="url(#mask-4)"></path>
                </g>
            </g>
        </g>
    </g>
</svg>