<?xml version="1.0" encoding="UTF-8"?>
<svg width="37px" height="36px" viewBox="0 0 37 36" version="1.1" xmlns="http://www.w3.org/2000/svg" xmlns:xlink="http://www.w3.org/1999/xlink">
    <!-- Generator: Sketch 50.2 (55047) - http://www.bohemiancoding.com/sketch -->
    <title>Group</title>
    <desc>Created with Sketch.</desc>
    <defs>
        <polygon id="path-1" points="0.00291970803 0.0194647202 0.00291970803 19.9514355 16.1181022 19.9514355 16.1181022 0.0194647202 0.00291970803 0.0194647202"></polygon>
    </defs>
    <g id="Welcome" stroke="none" stroke-width="1" fill="none" fill-rule="evenodd">
        <g id="access_control_groups" transform="translate(-1191.000000, -340.000000)">
            <g id="Group" transform="translate(1191.000000, 340.000000)">
                <circle id="Oval-3" fill="#EEEEEE" cx="18.7106687" cy="18" r="18"></circle>
                <g id="Group-3" transform="translate(11.210669, 8.000000)">
                    <path d="M5.16403893,17.490365 C5.4622871,17.490365 5.70389294,17.2486131 5.70389294,16.950365 L5.70389294,10.8706569 C5.70389294,10.5726034 5.46209246,10.3306569 5.16403893,10.3306569 C4.86579075,10.3306569 4.62399027,10.5726034 4.62399027,10.8706569 L4.62399027,16.950365 C4.62399027,17.2486131 4.86579075,17.490365 5.16403893,17.490365 Z" id="Fill-4" fill="#9B9B9B"></path>
                    <path d="M8.05902676,17.490365 C8.35727494,17.490365 8.59907543,17.2486131 8.59907543,16.950365 L8.59907543,10.8706569 C8.59907543,10.5726034 8.35708029,10.3306569 8.05902676,10.3306569 C7.76077859,10.3306569 7.51902676,10.5726034 7.51902676,10.8706569 L7.51902676,16.950365 C7.51902676,17.2486131 7.76077859,17.490365 8.05902676,17.490365 Z" id="Fill-5" fill="#9B9B9B"></path>
                    <path d="M10.9540146,17.490365 C11.2520681,17.490365 11.4938686,17.2486131 11.4938686,16.950365 L11.4938686,10.8706569 C11.4938686,10.5726034 11.2520681,10.3306569 10.9540146,10.3306569 C10.6558151,10.3306569 10.4140146,10.5726034 10.4140146,10.8706569 L10.4140146,16.950365 C10.4140146,17.2486131 10.6558151,17.490365 10.9540146,17.490365 Z" id="Fill-6" fill="#9B9B9B"></path>
                    <mask id="mask-2" fill="white">
                        <use xlink:href="#path-1"></use>
                    </mask>
                    <g id="Clip-2"></g>
                    <path d="M13.8410706,2.40749392 L10.7384915,2.40749392 C10.583747,1.06549878 9.44189781,0.0194647202 8.05902676,0.0194647202 C6.67615572,0.0194647202 5.53450122,1.06530414 5.37961071,2.40749392 L2.27703163,2.40749392 C1.02131387,2.40749392 0,3.42919708 0,4.68472019 L0,4.80145985 C0,5.76097324 0.597420925,6.58214112 1.43892944,6.91688564 L1.43892944,17.6742092 C1.43892944,18.9296837 2.46043796,19.9514355 3.71596107,19.9514355 L12.4020925,19.9514355 C13.6576156,19.9514355 14.6789294,18.9296837 14.6789294,17.6742092 L14.6789294,6.91688564 C15.5206326,6.58214112 16.1181022,5.76097324 16.1181022,4.80160584 L16.1181022,4.68472019 C16.1181022,3.42919708 15.096545,2.40749392 13.8410706,2.40749392 Z M8.05902676,1.09931873 C8.84559611,1.09931873 9.50199513,1.66311436 9.64720195,2.40749392 L6.47104623,2.40749392 C6.6163017,1.66311436 7.27284672,1.09931873 8.05902676,1.09931873 Z M13.5990754,17.6742092 C13.5990754,18.3343552 13.0618978,18.8713382 12.4020925,18.8713382 L3.71596107,18.8713382 C3.05600973,18.8713382 2.51902676,18.3341606 2.51902676,17.6742092 L2.51902676,7.07863747 L13.5990754,7.07863747 L13.5990754,17.6742092 Z M15.0380049,4.80145985 C15.0380049,5.46160584 14.5010219,5.99878345 13.8410706,5.99878345 L2.27703163,5.99878345 C1.61703163,5.99878345 1.07985401,5.46160584 1.07985401,4.80145985 L1.07985401,4.68472019 C1.07985401,4.02457421 1.61703163,3.48739659 2.27703163,3.48739659 L13.8410706,3.48739659 C14.5010219,3.48739659 15.0381995,4.02457421 15.0381995,4.68472019 L15.0381995,4.80145985 L15.0380049,4.80145985 Z" id="Fill-1" fill="#9B9B9B" mask="url(#mask-2)"></path>
                </g>
            </g>
        </g>
    </g>
</svg>