<?xml version="1.0" encoding="UTF-8"?>
<svg width="39px" height="44px" viewBox="0 0 39 44" version="1.1" xmlns="http://www.w3.org/2000/svg" xmlns:xlink="http://www.w3.org/1999/xlink">
    <!-- Generator: Sketch 50.2 (55047) - http://www.bohemiancoding.com/sketch -->
    <title>Group 5</title>
    <desc>Created with Sketch.</desc>
    <defs></defs>
    <g id="Welcome" stroke="none" stroke-width="1" fill="none" fill-rule="evenodd">
        <g id="home" transform="translate(-262.000000, -312.000000)">
            <g id="Group-5" transform="translate(262.861980, 313.000000)">
                <g id="008-door" fill="#4A5CA0">
                    <path d="M36.8868877,38.8429161 L32.8631404,38.8429161 L32.8631404,0.669839071 C32.8631404,0.267817906 32.5948382,0 32.1923358,0 L5.36535655,0 C4.96285411,0 4.69455189,0.267817906 4.69455189,0.669839071 L4.69455189,38.8429161 L0.670804653,38.8429161 C0.268203969,38.8429161 0,39.1108321 0,39.5127551 C0,39.9143839 0.268203969,40.1826923 0.670804653,40.1826923 L36.8868877,40.1826923 C37.2893901,40.1826923 37.5576923,39.9147763 37.5576923,39.5127551 C37.5576923,39.1108321 37.2893901,38.8429161 36.8868877,38.8429161 Z M8.71869211,38.8429161 L28.8390002,38.8429161 L28.8390002,4.01834771 L8.71869211,4.01834771 L8.71869211,38.8429161 Z M30.1802165,38.8429161 L30.1802165,3.34850864 C30.1802165,2.94687988 29.9120126,2.67906198 29.5098049,2.67906198 L8.04828043,2.67906198 C7.64567974,2.67906198 7.37747577,2.94687988 7.37747577,3.34850864 L7.37747577,38.8429161 L6.0361612,38.8429161 L6.0361612,1.33928573 L31.5218258,1.33928573 L31.5218258,38.8429161 L30.1802165,38.8429161 Z" id="Fill-1"></path>
                </g>
                <polygon id="Rectangle" stroke="#4A5CA0" stroke-width="1.5" fill="#F6FFFF" points="7.875 3.23076923 25.2375229 -3.02258218e-14 25.2375229 41.9423487 7.875 39.3173487"></polygon>
                <path d="M22.5841766,19.4920129 L20.6816856,19.4920129 C20.3961447,19.4920129 20.2059235,19.7602611 20.2059235,20.1629281 L20.2059235,20.8334503 L19.2546083,20.8334503 C18.9691371,20.8334503 18.7788462,21.1016985 18.7788462,21.5043655 C18.7788462,21.9066395 18.9691371,22.1748877 19.2546083,22.1748877 L20.2059235,22.1748877 L20.2059235,22.8458029 C20.2059235,23.24847 20.3961447,23.5168164 20.6816856,23.5168164 L22.5841766,23.5168164 C22.8697175,23.5168164 23.0600084,23.24847 23.0600084,22.8458029 L23.0600084,20.1629281 C23.0600084,19.7602611 22.8697175,19.4920129 22.5841766,19.4920129 Z M21.157169,22.1752807 L22.1084145,22.1752807 L22.1084145,20.8334503 L21.157169,20.8334503 L21.157169,22.1752807 Z" id="Fill-2" fill="#4A5CA0"></path>
            </g>
        </g>
    </g>
</svg>