<?xml version="1.0" encoding="UTF-8"?>
<svg width="48px" height="48px" viewBox="0 0 48 48" version="1.1" xmlns="http://www.w3.org/2000/svg" xmlns:xlink="http://www.w3.org/1999/xlink">
    <!-- Generator: Sketch 50.2 (55047) - http://www.bohemiancoding.com/sketch -->
    <title>Group 2</title>
    <desc>Created with Sketch.</desc>
    <defs>
        <rect id="path-1" x="0.861979701" y="0" width="40" height="40" rx="4"></rect>
        <filter x="-13.8%" y="-13.8%" width="127.5%" height="127.5%" filterUnits="objectBoundingBox" id="filter-2">
            <feMorphology radius="1" operator="dilate" in="SourceAlpha" result="shadowSpreadOuter1"></feMorphology>
            <feOffset dx="0" dy="0" in="shadowSpreadOuter1" result="shadowOffsetOuter1"></feOffset>
            <feGaussianBlur stdDeviation="1.5" in="shadowOffsetOuter1" result="shadowBlurOuter1"></feGaussianBlur>
            <feComposite in="shadowBlurOuter1" in2="SourceAlpha" operator="out" result="shadowBlurOuter1"></feComposite>
            <feColorMatrix values="0 0 0 0 0.4   0 0 0 0 0.4   0 0 0 0 0.4  0 0 0 0.5 0" type="matrix" in="shadowBlurOuter1"></feColorMatrix>
        </filter>
        <polygon id="path-3" points="0.00350364964 0.0233576642 0.00350364964 23.9417226 18.6861314 23.9417226 18.6861314 0.0233576642 0.00350364964 0.0233576642"></polygon>
    </defs>
    <g id="Welcome" stroke="none" stroke-width="1" fill="none" fill-rule="evenodd">
        <g id="ac_visitor_activity" transform="translate(-1209.000000, -67.000000)">
            <g id="Group-2" transform="translate(1211.861980, 71.000000)">
                <g id="Rectangle">
                    <use fill="black" fill-opacity="1" filter="url(#filter-2)" xlink:href="#path-1"></use>
                    <rect stroke="#CCCCCC" stroke-width="1" fill="#FFFFFF" fill-rule="evenodd" x="0.361979701" y="-0.5" width="41" height="41" rx="4"></rect>
                </g>
                <g id="001-interface" transform="translate(12.361980, 8.000000)">
                    <mask id="mask-4" fill="white">
                        <use xlink:href="#path-3"></use>
                    </mask>
                    <g id="Clip-2"></g>
                    <path d="M11.1464526,9.7400292 C11.1464526,9.53862774 10.9831241,9.37553285 10.7817226,9.37553285 L7.90440876,9.37553285 C7.7030073,9.37553285 7.53967883,9.53862774 7.53967883,9.7400292 L7.53967883,13.4864234 L5.23223358,13.4864234 C5.08461314,13.4864234 4.95188321,13.5751241 4.89529927,13.7117664 C4.83871533,13.847708 4.8699562,14.0049051 4.97448175,14.1086715 L9.08531387,18.2197372 C9.15649635,18.2909197 9.24951825,18.3267153 9.34306569,18.3267153 C9.43661314,18.3267153 9.52963504,18.2909197 9.60081752,18.2197372 L13.7116496,14.1086715 C13.8161752,14.0049051 13.8474161,13.847708 13.7908321,13.7117664 C13.7342482,13.5751241 13.6015182,13.4864234 13.4538978,13.4864234 L11.1464526,13.4864234 L11.1464526,9.7400292 Z M12.5736642,14.2156496 L9.34306569,17.4464818 L6.11246715,14.2156496 L7.90440876,14.2156496 C8.10581022,14.2156496 8.26890511,14.0525547 8.26890511,13.8511533 L8.26890511,10.1048175 L10.4172263,10.1048175 L10.4172263,13.8511533 C10.4172263,14.0525547 10.5803212,14.2156496 10.7817226,14.2156496 L12.5736642,14.2156496 Z" id="Fill-1" stroke="#777777" stroke-width="0.5" fill="#777777" mask="url(#mask-4)"></path>
                    <path d="M18.5545109,5.92618978 L12.7508905,0.132846715 C12.6808759,0.0628321168 12.5803212,0.0233576642 12.4810511,0.0233576642 L1.1560292,0.0240583942 C0.539912409,0.0240583942 0,0.525664234 0,1.1419562 L0,22.7713285 C0,23.0837956 0.157372263,23.3775766 0.378394161,23.5990657 C0.599708029,23.8199124 0.929051095,23.9417226 1.24157664,23.9417226 L17.5298686,23.9417226 C17.8268613,23.9417226 18.1281752,23.8260438 18.3385109,23.6157664 C18.5483796,23.4054307 18.6861314,23.1262482 18.6861314,22.8294891 L18.6861314,6.19030657 C18.6861314,6.09132847 18.6245255,5.99620438 18.5545109,5.92618978 Z M12.3640292,0.813956204 L17.5522336,6.00280292 L12.350365,6.00280292 C12.3825401,2.88332847 12.3841168,1.47340146 12.3640292,0.813956204 Z M17.9386277,22.8294891 C17.9386277,22.9254891 17.8774891,23.0195036 17.8097518,23.0874745 C17.7408467,23.1560876 17.6272701,23.194219 17.5298686,23.194219 L1.24157664,23.194219 C1.12840876,23.194219 0.986744526,23.1501898 0.906919708,23.0705985 C0.827094891,22.9904818 0.74750365,22.8842044 0.74750365,22.7713285 L0.74750365,1.1419562 C0.74750365,0.937810219 0.949138686,0.77150365 1.15328467,0.77150365 L11.6015182,0.770861314 C11.6197372,1.71334307 11.6094599,4.54254015 11.590073,6.37255474 C11.5889635,6.47246715 11.632292,6.56852555 11.7025401,6.63947445 C11.7727883,6.71042336 11.8729343,6.75030657 11.9726131,6.75030657 L17.9386277,6.75030657 L17.9386277,22.8294891 Z" id="Fill-3" stroke="#777777" stroke-width="0.5" fill="#777777" mask="url(#mask-4)"></path>
                </g>
            </g>
        </g>
    </g>
</svg>