<?xml version="1.0" encoding="utf-8"?>
<!-- Generator: Adobe Illustrator 22.0.0, SVG Export Plug-In . SVG Version: 6.00 Build 0)  -->
<svg version="1.1" id="Layer_1" xmlns="http://www.w3.org/2000/svg" xmlns:xlink="http://www.w3.org/1999/xlink" x="0px" y="0px"
	 viewBox="0 0 12 12" style="enable-background:new 0 0 12 12;" xml:space="preserve">
<g>
	<path id="Shape_151_" d="M11.6,1.4l-1.1-1.1c-0.5-0.5-1.3-0.5-1.8,0L1.1,8.1C1,8.1,1,8.1,1,8.2l-1,3.5c0,0.1,0,0.2,0.1,0.2
		c0,0,0.1,0.1,0.2,0.1c0,0,0,0,0.1,0l3.5-1c0,0,0.1,0,0.1-0.1l7.7-7.7C11.9,3,12,2.7,12,2.3C12,2,11.9,1.7,11.6,1.4z M11.3,2.9
		l-7.7,7.7l-3,0.9l0.9-3l7.7-7.7c0.3-0.3,0.8-0.3,1.1,0l1.1,1.1C11.6,2.1,11.6,2.6,11.3,2.9z"/>
	<path id="Shape_150_" d="M11.5,1.4l-1.1-1.1c-0.5-0.5-1.3-0.5-1.7,0L1,8.1C0.9,8.2,0.9,8.4,1,8.5c0.1,0.1,0.3,0.1,0.3,0L9,0.7
		c0.3-0.3,0.8-0.3,1,0l1.1,1.1c0.3,0.3,0.3,0.8,0,1.1l-7.6,7.7c-0.1,0.1-0.1,0.3,0,0.4c0,0,0.1,0.1,0.2,0.1c0.1,0,0.1,0,0.2-0.1
		l7.6-7.7C12,2.7,12,1.9,11.5,1.4z"/>
	<path id="Shape_149_" d="M3.9,10.6L1.4,8.1C1.3,8,1.1,8,1,8.1C0.9,8.2,0.9,8.3,1,8.4L3.6,11c0,0,0.1,0.1,0.2,0.1s0.1,0,0.2-0.1
		C4,10.9,4,10.7,3.9,10.6z"/>
</g>
</svg>
