<?xml version="1.0" encoding="UTF-8"?>
<svg width="31px" height="31px" viewBox="0 0 31 31" version="1.1" xmlns="http://www.w3.org/2000/svg" xmlns:xlink="http://www.w3.org/1999/xlink">
    <!-- Generator: Sketch 50.2 (55047) - http://www.bohemiancoding.com/sketch -->
    <title>claims</title>
    <desc>Created with Sketch.</desc>
    <defs>
        <polygon id="path-1" points="0.0043902439 0.0294146341 0.0043902439 31.9999268 31.970878 31.9999268 31.970878 0.0294146341 1.00439024 0.0294146341"></polygon>
    </defs>
    <g id="Welcome" stroke="none" stroke-width="1" fill="none" fill-rule="evenodd">
        <g id="add_group_details_config" transform="translate(-313.000000, -1433.000000)">
            <g id="claims" transform="translate(312.361980, 1432.327041)">
                <path d="M24.9765854,20.0109268 C25.5276341,20.0109268 25.9755122,20.4588049 25.9755122,21.0098537 C25.9755122,21.2857073 26.1990488,21.5094634 26.475122,21.5094634 C26.7512683,21.5094634 26.9747317,21.2857073 26.9747317,21.0098537 C26.9747317,20.0817561 26.3356585,19.3060732 25.4761951,19.0828293 L25.4761951,19.0119268 C25.4761951,18.7361463 25.2529512,18.5123171 24.9765854,18.5123171 C24.700439,18.5123171 24.4771951,18.7361463 24.4771951,19.0119268 L24.4771951,19.0828293 C23.617439,19.3060732 22.9786585,20.0817561 22.9786585,21.0098537 C22.9786585,22.1120244 23.8747073,23.0080732 24.9765854,23.0080732 C25.5276341,23.0080732 25.9755122,23.4559512 25.9755122,24.007 C25.9755122,24.5580488 25.5276341,25.0059268 24.9765854,25.0059268 C24.4257561,25.0059268 23.9775854,24.5580488 23.9775854,24.007 C23.9775854,23.7311463 23.7544146,23.5073902 23.4779756,23.5073902 C23.2019024,23.5073902 22.9786585,23.7311463 22.9786585,24.007 C22.9786585,24.9350976 23.617439,25.7107805 24.4771951,25.9340244 L24.4771951,26.0052195 C24.4771951,26.2807073 24.700439,26.5045366 24.9765854,26.5045366 C25.2529512,26.5045366 25.4761951,26.2807073 25.4761951,26.0052195 L25.4761951,25.9340244 C26.3356585,25.7107805 26.9747317,24.9350976 26.9747317,24.007 C26.9747317,22.905122 26.0783902,22.0090732 24.9765854,22.0090732 C24.4257561,22.0090732 23.9775854,21.5609024 23.9775854,21.0098537 C23.9775854,20.4588049 24.4257561,20.0109268 24.9765854,20.0109268 Z" id="Fill-1" fill="#777777"></path>
                <path d="M24.4771951,12.0187073 C24.7533415,12.0187073 24.9765854,11.7949512 24.9765854,11.5190976 C24.9765854,11.2435366 24.7533415,11.0197805 24.4771951,11.0197805 L21.480122,11.0197805 C21.2036829,11.0197805 20.980439,11.2435366 20.980439,11.5190976 C20.980439,11.7949512 21.2036829,12.0187073 21.480122,12.0187073 L24.4771951,12.0187073 Z" id="Fill-2" fill="#777777"></path>
                <path d="M20.980439,22.5083902 C20.980439,22.2326098 20.7572683,22.0087805 20.4808293,22.0087805 L15.985439,22.0087805 C15.7095854,22.0087805 15.4858293,22.2326098 15.4858293,22.5083902 C15.4858293,22.7839512 15.7095854,23.0077805 15.985439,23.0077805 L20.4808293,23.0077805 C20.7572683,23.0080732 20.980439,22.7842439 20.980439,22.5083902 Z" id="Fill-3" fill="#777777"></path>
                <g id="Group-7">
                    <mask id="mask-2" fill="white">
                        <use xlink:href="#path-1"></use>
                    </mask>
                    <g id="Clip-5"></g>
                    <path d="M13.4879024,12.0187073 L19.4819024,12.0187073 C19.7582683,12.0187073 19.9815122,11.7949512 19.9815122,11.5190976 C19.9815122,11.2435366 19.7582683,11.0197805 19.4819024,11.0197805 L13.4879024,11.0197805 C13.2120488,11.0197805 12.9882927,11.2435366 12.9882927,11.5190976 C12.9882927,11.7949512 13.2120488,12.0187073 13.4879024,12.0187073 Z" id="Fill-4" fill="#777777" mask="url(#mask-2)"></path>
                    <path d="M28.4730488,5.0254878 L11.9903659,5.0254878 C11.7145854,5.0254878 11.4907561,5.24953659 11.4907561,5.52509756 C11.4907561,5.80065854 11.7145854,6.02441463 11.9903659,6.02441463 L28.4733415,6.02441463 C29.2993659,6.02441463 29.9715854,6.697 29.9715854,7.52302439 L29.9715854,30.001 L9.99114634,30.001 L9.99114634,7.52302439 C9.99114634,6.14587805 8.87068293,5.0254878 7.49360976,5.0254878 C6.11653659,5.0254878 4.99607317,6.14587805 4.99607317,7.52302439 L4.99607317,24.5063171 C4.99607317,25.3326341 4.32385366,26.0049268 3.49753659,26.0049268 C2.67121951,26.0049268 1.99892683,25.3326341 1.99892683,24.5063171 L1.99892683,2.02834146 L21.979439,2.02834146 L21.979439,3.52687805 C21.979439,3.80273171 22.2026829,4.02656098 22.4790488,4.02656098 C22.755122,4.02656098 22.9783659,3.80273171 22.9783659,3.52687805 L22.9783659,1.52902439 C22.9783659,1.25317073 22.755122,1.02941463 22.4790488,1.02941463 L1.49960976,1.02941463 C1.22382927,1.02941463 1,1.25317073 1,1.52902439 L1,24.5063171 C1,25.8833902 2.12039024,27.0041463 3.49753659,27.0041463 C4.87460976,27.0041463 5.99507317,25.8836829 5.99507317,24.5063171 L5.99507317,7.52302439 C5.99507317,6.697 6.66758537,6.02441463 7.49360976,6.02441463 C8.31992683,6.02441463 8.99221951,6.697 8.99221951,7.52302439 L8.99221951,26.0049268 L7.49468293,26.0049268 C7.21882927,26.0049268 6.99507317,26.2286829 6.99507317,26.5045366 C6.99507317,26.7800244 7.21882927,27.0038537 7.49468293,27.0038537 L8.99221951,27.0038537 L8.99221951,30.5006098 C8.99221951,30.7761707 9.21597561,30.9999268 9.49182927,30.9999268 L30.4711951,30.9999268 C30.7473415,30.9999268 30.970878,30.7761707 30.970878,30.5006098 L30.970878,7.52302439 C30.970878,6.14587805 29.8504146,5.0254878 28.4730488,5.0254878 Z" id="Fill-6" fill="#777777" mask="url(#mask-2)"></path>
                </g>
                <path d="M13.4879024,15.015561 L26.475122,15.015561 C26.7512683,15.015561 26.9747317,14.7920244 26.9747317,14.5162439 C26.9747317,14.2403902 26.7512683,14.0166341 26.475122,14.0166341 L13.4879024,14.0166341 C13.2120488,14.0166341 12.9882927,14.2403902 12.9882927,14.5162439 C12.9882927,14.7920244 13.2120488,15.015561 13.4879024,15.015561 Z" id="Fill-8" fill="#777777"></path>
                <path d="M15.985439,25.0059268 C15.7095854,25.0059268 15.4858293,25.2297561 15.4858293,25.5055366 C15.4858293,25.7810976 15.7095854,26.0049268 15.985439,26.0049268 L19.9815122,26.0049268 C20.2576585,26.0049268 20.4808293,25.7810976 20.4808293,25.5055366 C20.4808293,25.2297561 20.2576585,25.0059268 19.9815122,25.0059268 L15.985439,25.0059268 Z" id="Fill-9" fill="#777777"></path>
                <path d="M13.4879024,26.0049268 L13.9872195,26.0049268 C14.2630732,26.0049268 14.4868293,25.7810976 14.4868293,25.5055366 C14.4868293,25.2297561 14.2630732,25.0059268 13.9872195,25.0059268 L13.4879024,25.0059268 C13.2120488,25.0059268 12.9882927,25.2297561 12.9882927,25.5055366 C12.9882927,25.7810976 13.2120488,26.0049268 13.4879024,26.0049268 Z" id="Fill-10" fill="#777777"></path>
                <path d="M13.4879024,23.0080732 L13.9872195,23.0080732 C14.2630732,23.0080732 14.4868293,22.7842439 14.4868293,22.5083902 C14.4868293,22.2326098 14.2630732,22.0090732 13.9872195,22.0090732 L13.4879024,22.0090732 C13.2120488,22.0090732 12.9882927,22.2326098 12.9882927,22.5083902 C12.9882927,22.7842439 13.2120488,23.0080732 13.4879024,23.0080732 Z" id="Fill-11" fill="#777777"></path>
                <path d="M15.985439,20.0109268 L19.4819024,20.0109268 C19.7582683,20.0109268 19.9815122,19.7870976 19.9815122,19.5113171 C19.9815122,19.2357561 19.7582683,19.0119268 19.4819024,19.0119268 L15.985439,19.0119268 C15.7095854,19.0119268 15.4858293,19.2357561 15.4858293,19.5113171 C15.4858293,19.7870976 15.7095854,20.0109268 15.985439,20.0109268 Z" id="Fill-12" fill="#777777"></path>
                <path d="M13.4879024,20.0109268 L13.9872195,20.0109268 C14.2630732,20.0109268 14.4868293,19.7870976 14.4868293,19.5113171 C14.4868293,19.2357561 14.2630732,19.0119268 13.9872195,19.0119268 L13.4879024,19.0119268 C13.2120488,19.0119268 12.9882927,19.2357561 12.9882927,19.5113171 C12.9882927,19.7870976 13.2120488,20.0109268 13.4879024,20.0109268 Z" id="Fill-13" fill="#777777"></path>
            </g>
        </g>
    </g>
</svg>