<?xml version="1.0" encoding="UTF-8"?>
<svg width="37px" height="36px" viewBox="0 0 37 36" version="1.1" xmlns="http://www.w3.org/2000/svg" xmlns:xlink="http://www.w3.org/1999/xlink">
    <!-- Generator: Sketch 50.2 (55047) - http://www.bohemiancoding.com/sketch -->
    <title>Group 6</title>
    <desc>Created with Sketch.</desc>
    <defs>
        <polygon id="path-1" points="0.00299168975 0.0165041551 0.00299168975 17.9999501 4.39578947 17.9999501 4.39578947 0.0165041551"></polygon>
    </defs>
    <g id="Welcome" stroke="none" stroke-width="1" fill="none" fill-rule="evenodd">
        <g id="access_control_add_groups" transform="translate(-235.000000, -493.000000)">
            <g id="Group-6" transform="translate(235.000000, 493.000000)">
                <circle id="Oval-3" fill="#EEEEEE" cx="18.3619797" cy="18" r="18"></circle>
                <g id="003-list" transform="translate(8.011980, 9.000000)">
                    <g id="Group-5">
                        <mask id="mask-2" fill="white">
                            <use xlink:href="#path-1"></use>
                        </mask>
                        <g id="Clip-2"></g>
                        <path d="M2.19779501,4.41638227 C3.41162327,4.41638227 4.39578947,3.42812742 4.39578947,2.21858726 C4.39578947,1.00904709 3.41162327,0.0165041551 2.19779501,0.0165041551 C0.984166205,0.0165041551 0,1.00495845 0,2.21429917 C0,3.42383934 0.988454294,4.41638227 2.19779501,4.41638227 Z M2.19779501,1.03826593 C2.8485374,1.03826593 3.3740277,1.56784488 3.3740277,2.21429917 C3.3740277,2.86075346 2.84424931,3.39053186 2.19779501,3.39053186 C1.55134072,3.39053186 1.02176177,2.86075346 1.02176177,2.21429917 C1.02176177,1.56784488 1.55134072,1.03826593 2.19779501,1.03826593 Z" id="Fill-1" fill="#777777" mask="url(#mask-2)"></path>
                        <path d="M2.19779501,11.2061219 C3.41162327,11.2061219 4.39578947,10.2176676 4.39578947,9.00832687 C4.39578947,7.7987867 3.41162327,6.81033241 2.19779501,6.81033241 C0.984166205,6.81033241 0,7.79469806 0,9.00832687 C0,10.2219557 0.988454294,11.2061219 2.19779501,11.2061219 Z M2.19779501,7.83209418 C2.8485374,7.83209418 3.3740277,8.36187258 3.3740277,9.00832687 C3.3740277,9.65478116 2.84424931,10.1843601 2.19779501,10.1843601 C1.55134072,10.1843601 1.02176177,9.65886981 1.02176177,9.00832687 C1.02176177,8.35758449 1.55134072,7.83209418 2.19779501,7.83209418 Z" id="Fill-3" fill="#777777" mask="url(#mask-2)"></path>
                        <path d="M2.19779501,17.9999501 C3.41162327,17.9999501 4.39578947,17.0114958 4.39578947,15.8021551 C4.39578947,14.5885263 3.40733518,13.6041607 2.19779501,13.6041607 C0.988454294,13.6041607 0,14.592615 0,15.8021551 C0,17.0114958 0.988454294,17.9999501 2.19779501,17.9999501 Z M2.19779501,14.6218338 C2.8485374,14.6218338 3.3740277,15.1514127 3.3740277,15.797867 C3.3740277,16.4486094 2.84424931,16.9740997 2.19779501,16.9740997 C1.55134072,16.9740997 1.02176177,16.4443213 1.02176177,15.797867 C1.02176177,15.1514127 1.55134072,14.6218338 2.19779501,14.6218338 Z" id="Fill-4" fill="#777777" mask="url(#mask-2)"></path>
                    </g>
                    <path d="M7.33607202,2.7273241 L19.9102936,2.7273241 C20.1939058,2.7273241 20.4233684,2.4981108 20.4233684,2.21429917 C20.4233684,1.93073684 20.1939058,1.70147368 19.9102936,1.70147368 L7.33607202,1.70147368 C7.05245983,1.70147368 6.82304709,1.93073684 6.82304709,2.21429917 C6.82304709,2.4981108 7.05245983,2.7273241 7.33607202,2.7273241 Z" id="Fill-6" fill="#777777"></path>
                    <path d="M7.33607202,9.52115235 L19.9102936,9.52115235 C20.1939058,9.52115235 20.4233684,9.29193906 20.4233684,9.00832687 C20.4233684,8.72476454 20.1939058,8.49530194 19.9102936,8.49530194 L7.33607202,8.49530194 C7.05245983,8.49530194 6.82304709,8.72476454 6.82304709,9.00832687 C6.82304709,9.29193906 7.05245983,9.52115235 7.33607202,9.52115235 Z" id="Fill-7" fill="#777777"></path>
                    <path d="M7.33607202,16.310892 L19.9102936,16.310892 C20.1939058,16.310892 20.4233684,16.0814792 20.4233684,15.797867 C20.4233684,15.5143047 20.1939058,15.2850416 19.9102936,15.2850416 L7.33607202,15.2850416 C7.05245983,15.2850416 6.82304709,15.5143047 6.82304709,15.797867 C6.82304709,16.0814792 7.05245983,16.310892 7.33607202,16.310892 Z" id="Fill-8" fill="#777777"></path>
                </g>
            </g>
        </g>
    </g>
</svg>