<?xml version="1.0" encoding="UTF-8"?>
<svg width="36px" height="31px" viewBox="0 0 36 31" version="1.1" xmlns="http://www.w3.org/2000/svg" xmlns:xlink="http://www.w3.org/1999/xlink">
    <!-- Generator: Sketch 50.2 (55047) - http://www.bohemiancoding.com/sketch -->
    <title>screen_orderfood</title>
    <desc>Created with Sketch.</desc>
    <defs>
        <polygon id="path-1" points="0.00524218244 29.5402552 35.7868069 29.5402552 35.7868069 0.031184233 0.00524218244 0.031184233"></polygon>
    </defs>
    <g id="Welcome" stroke="none" stroke-width="1" fill="none" fill-rule="evenodd">
        <g id="add_group_details_config" transform="translate(-794.000000, -1323.000000)">
            <g id="screen_orderfood" transform="translate(812.361980, 1338.844103) rotate(1.000000) translate(-812.361980, -1338.844103) translate(794.361980, 1323.415532)">
                <g id="Group-4" transform="translate(24.638257, 0.000000)" fill="#777777">
                    <path d="M1.14602845,11.6834878 C1.25934696,11.8596738 1.44981292,11.9557673 1.64359894,11.9557673 C1.75385951,11.9557673 1.86516851,11.9249084 1.9644205,11.8602893 C2.23884875,11.6817295 2.31765623,11.3132687 2.14020835,11.0367692 C2.12177334,11.0086357 0.300027575,8.09980838 1.84568507,6.11683673 C2.70024818,5.0205976 2.84938827,3.6396827 2.27772827,2.12381495 C1.86927489,1.04102715 1.22964126,0.264894417 1.20273139,0.232628818 C0.993131464,-0.0198692792 0.619800704,-0.0534536361 0.369311753,0.157723393 C0.118385954,0.368548754 0.0853602041,0.743603379 0.294173805,0.99566189 C0.322831069,1.03109251 2.35076935,3.53875379 0.914323988,5.38158548 C-1.1542412,8.03554093 1.05114495,11.535787 1.14602845,11.6834878 Z" id="Fill-1"></path>
                    <path d="M5.1182922,11.6834878 C5.23161071,11.8596738 5.42172719,11.9557673 5.61586268,11.9557673 C5.72577377,11.9557673 5.83734489,11.9249084 5.93668425,11.8602893 C6.2111125,11.6817295 6.28991998,11.3132687 6.1124721,11.0367692 C6.09438657,11.0086357 4.27194184,8.09980838 5.81794882,6.11683673 C6.67251192,5.0205976 6.82165201,3.6396827 6.24964254,2.12381495 C5.84110179,1.04102715 5.20190501,0.264894417 5.17464566,0.232628818 C4.96539521,-0.0198692792 4.59206445,-0.0534536361 4.34122602,0.157723393 C4.0906497,0.368285003 4.05727447,0.74325171 4.26608807,0.99566189 C4.28688206,1.02071828 6.32574156,3.53497336 4.88623826,5.38158548 C2.81802254,8.03554093 5.0234087,11.535787 5.1182922,11.6834878 Z" id="Fill-3"></path>
                </g>
                <path d="M4.90668277,11.9595477 C5.02000128,12.1357337 5.21011776,12.2315634 5.40425325,12.2315634 C5.51451382,12.2315634 5.62582283,12.2006166 5.72507482,12.1360854 C5.99950307,11.9575256 6.07796107,11.5889769 5.90051319,11.3125653 C5.88242766,11.2844318 4.06033241,8.37595619 5.60633938,6.39263288 C6.46055301,5.29639375 6.61004258,3.91583051 6.03803311,2.39996276 C5.62957973,1.31708704 4.99029558,0.540954314 4.96338571,0.508337046 C4.75378578,0.256278535 4.38045502,0.222606261 4.12961659,0.433519539 C3.87904027,0.6443449 3.84566504,1.01939952 4.05447864,1.27145804 C4.07536,1.2968661 6.11413212,3.81112117 4.6749783,5.6577333 C2.60606363,8.31168875 4.81179927,11.8115832 4.90668277,11.9595477 Z" id="Fill-5" fill="#777777"></path>
                <g id="Group-9" transform="translate(0.000000, 0.263751)">
                    <mask id="mask-2" fill="white">
                        <use xlink:href="#path-1"></use>
                    </mask>
                    <g id="Clip-7"></g>
                    <path d="M8.87894651,11.6957962 C8.99191555,11.8719822 9.18203203,11.967812 9.37616752,11.967812 C9.48642809,11.967812 9.5977371,11.9368651 9.69698909,11.8723339 C9.97141734,11.6937742 10.0502248,11.3252254 9.87277694,11.0488138 C9.85469141,11.0206803 8.03259616,8.1122047 9.57860313,6.12888138 C10.4328168,5.03264226 10.5819569,3.65207902 10.0106463,2.13621127 C9.60210558,1.05333555 8.96255932,0.27720282 8.93556209,0.244585552 C8.72604953,-0.007472959 8.35298088,-0.0411452331 8.10179297,0.169768045 C7.8516535,0.380593406 7.8181909,0.75564803 8.02709187,1.00770654 C8.04788586,1.0331146 10.0867453,3.54736968 8.64724205,5.3939818 C6.57832738,8.04793725 8.78406301,11.5478317 8.87894651,11.6957962 Z" id="Fill-6" fill="#777777" mask="url(#mask-2)"></path>
                    <path d="M33.8219495,24.840819 L32.566709,24.840819 C32.2718362,17.4118186 26.4904079,11.3795582 19.1980953,10.7427742 L19.1980953,10.1363216 C19.9387283,9.69058156 20.3984677,8.89141453 20.3984677,8.00327533 C20.3984677,6.62860255 19.2865134,5.50968079 17.9199638,5.50968079 L17.8667557,5.50968079 C16.5002061,5.50968079 15.3883392,6.62860255 15.3883392,8.00327533 C15.3883392,8.89141453 15.8484281,9.69058156 16.5886242,10.1363216 L16.5886242,10.7427742 C9.29596213,11.3795582 3.51462122,17.4118186 3.22001057,24.840819 L1.9644205,24.840819 C0.881210869,24.840819 0,25.7275516 0,26.8175486 L0,27.562119 C0,28.6528194 0.881210869,29.5402552 1.9644205,29.5402552 L33.822299,29.5402552 C34.905596,29.5402552 35.7868069,28.6528194 35.7868069,27.562119 L35.7868069,26.8175486 C35.7864574,25.7275516 34.9052465,24.840819 33.8219495,24.840819 Z M16.5715871,8.00327533 C16.5715871,7.28516793 17.152421,6.70069462 17.8664062,6.70069462 L17.9197017,6.70069462 C18.6335996,6.70069462 19.2145208,7.28516793 19.2145208,8.00327533 C19.2145208,8.54009754 18.8906413,9.01537773 18.389576,9.21319135 C18.1633758,9.30251519 18.0142358,9.52265977 18.0142358,9.76750908 L18.0142358,10.6868589 L17.7718722,10.6868589 L17.7718722,9.76750908 C17.7718722,9.52265977 17.6227321,9.30286686 17.3964445,9.21319135 C16.8954666,9.01502606 16.5715871,8.54009754 16.5715871,8.00327533 Z M34.60286,27.562119 C34.60286,27.9959023 34.2523327,28.3488897 33.8219495,28.3488897 L1.96407102,28.3488897 C1.53377521,28.3488897 1.18359743,27.9959023 1.18359743,27.562119 L1.18359743,26.8175486 C1.18359743,26.3842049 1.53377521,26.0318329 1.96407102,26.0318329 L2.93710745,26.0318329 C2.94261175,26.0321845 2.94767919,26.0328 2.95318348,26.0328 L24.2058648,26.0328 C24.5324528,26.0328 24.7976198,25.7659714 24.7976198,25.437337 C24.7976198,25.108351 24.5324528,24.841874 24.2058648,24.841874 L4.40500591,24.841874 C4.71490626,17.6580746 10.6048477,11.9067095 17.8118001,11.8778727 L17.9745699,11.8778727 C25.1819592,11.9067095 31.0712017,17.6580746 31.381102,24.841874 L28.0333569,24.841874 C27.7064195,24.841874 27.4416019,25.108351 27.4416019,25.437337 C27.4416019,25.7659714 27.7064195,26.0328 28.0333569,26.0328 L32.603579,26.0318329 L33.8219495,26.0318329 C34.2523327,26.0318329 34.60286,26.3842049 34.60286,26.8175486 L34.60286,27.562119 Z" id="Fill-8" fill="#777777" mask="url(#mask-2)"></path>
                </g>
            </g>
        </g>
    </g>
</svg>