<?xml version="1.0" encoding="UTF-8"?>
<svg width="25px" height="24px" viewBox="0 0 25 24" version="1.1" xmlns="http://www.w3.org/2000/svg" xmlns:xlink="http://www.w3.org/1999/xlink">
    <!-- Generator: Sketch 50.2 (55047) - http://www.bohemiancoding.com/sketch -->
    <title>006-questions-circular-button</title>
    <desc>Created with Sketch.</desc>
    <defs>
        <polygon id="path-1" points="0.00350364964 0.0233576642 0.00350364964 23.9417226 23.918365 23.9417226 23.918365 0.0233576642"></polygon>
    </defs>
    <g id="Welcome" stroke="none" stroke-width="1" fill="none" fill-rule="evenodd">
        <g id="ac_visitor_activity" transform="translate(-1091.000000, -13.000000)">
            <g id="006-questions-circular-button" transform="translate(1091.238163, 13.000000)">
                <path d="M9.31705109,7.10522628 C9.08325074,7.34044862 8.93161619,7.49188571 8.81705109,7.60522628 C9.02910597,7.39332281 9.31705109,7.10522628 9.31705109,7.10522628 Z" id="Fill-1" fill="#000000"></path>
                <g id="Group-5">
                    <mask id="mask-2" fill="white">
                        <use xlink:href="#path-1"></use>
                    </mask>
                    <g id="Clip-3"></g>
                    <path d="M13.1692263,7.87392701 C13.4801752,8.25670073 13.6345693,8.70791241 13.6345693,9.22750365 C13.6345693,9.59929927 13.5278248,9.9569635 13.3159124,10.3027737 C13.1995912,10.4985109 13.0463066,10.6875912 12.8549489,10.8680292 L12.2178102,11.4975766 C11.6070073,12.0976934 11.212146,12.6294307 11.031708,13.0947737 C10.8512701,13.5589489 10.7609343,14.1709197 10.7609343,14.9298102 L12.1788029,14.9298102 C12.1788029,14.2612555 12.2547737,13.755562 12.4060146,13.4131971 C12.5570219,13.0707737 12.8875328,12.6533723 13.3973723,12.1585985 C14.0987445,11.4791241 14.5640876,10.9637956 14.7944526,10.6136642 C15.0248759,10.2635328 15.1411971,9.80689051 15.1411971,9.24367883 C15.1411971,8.31532847 14.8270949,7.55211679 14.1975474,6.95421898 C13.5681752,6.35614599 12.7310949,6.05827737 11.6851971,6.05827737 C10.5545109,6.05827737 9.66516788,6.40724088 9.01710949,7.10522628 C8.36905109,7.80321168 8.04513869,8.72525547 8.04513869,9.87211679 L9.46283212,9.87211679 C9.48905109,9.18189781 9.59877372,8.65337226 9.7890219,8.28706569 C10.1281752,7.62943066 10.7413139,7.29979562 11.6286715,7.29979562 C12.3451095,7.3000292 12.8592701,7.49121168 13.1692263,7.87392701 Z" id="Fill-2" fill="#9B9B9B" mask="url(#mask-2)"></path>
                    <path d="M23.918365,11.9825401 C23.918365,5.37781022 18.563854,0.0233576642 11.9591825,0.0233576642 C5.35445255,0.0233576642 0,5.37781022 0,11.9825401 C0,18.5872117 5.35445255,23.9417226 11.9591825,23.9417226 C18.563854,23.9417226 23.918365,18.5872117 23.918365,11.9825401 Z M1.08712409,11.9825401 C1.08712409,5.9779854 5.95462774,1.11048175 11.9591825,1.11048175 C17.9637372,1.11048175 22.8309489,5.9779854 22.8309489,11.9825401 C22.8309489,17.9870949 17.9637372,22.8543066 11.9591825,22.8543066 C5.95462774,22.8543066 1.08712409,17.9870949 1.08712409,11.9825401 Z" id="Fill-4" fill="#9B9B9B" mask="url(#mask-2)"></path>
                </g>
                <polygon id="Fill-6" fill="#9B9B9B" points="10.7283504 17.9065693 12.313635 17.9065693 12.313635 16.2508029 10.7283504 16.2508029"></polygon>
            </g>
        </g>
    </g>
</svg>