<?xml version="1.0" encoding="UTF-8"?>
<svg width="24px" height="24px" viewBox="0 0 24 24" version="1.1" xmlns="http://www.w3.org/2000/svg" xmlns:xlink="http://www.w3.org/1999/xlink">
    <!-- Generator: Sketch 50.2 (55047) - http://www.bohemiancoding.com/sketch -->
    <title>Group 4</title>
    <desc>Created with Sketch.</desc>
    <defs></defs>
    <g id="Welcome" stroke="none" stroke-width="1" fill="none" fill-rule="evenodd">
        <g id="access_control_add_new_employee" transform="translate(-881.000000, -173.000000)">
            <g id="Group-4" transform="translate(880.000000, 173.000000)">
                <circle id="Oval-3" fill="#FFF1CA" cx="12.9938381" cy="12" r="12"></circle>
                <path d="M17.6155343,10.0092013 C17.6155343,10.8058381 17.4014728,11.5828264 17.0131544,12.2824324 C16.9933107,12.3399712 16.9734671,12.3794632 16.935772,12.4189942 L16.8962409,12.476533 C16.7415151,12.7104381 16.5851487,12.9423901 16.3908918,13.1366079 C15.7111295,14.0878533 15.3621468,14.9043337 15.3801546,15.4277295 C15.3801546,15.4870652 15.3999982,15.544604 15.3999982,15.6021037 L15.3999982,17.2727987 C15.3999982,18.0100998 14.7975793,18.5928313 14.0799656,18.5928313 L11.925562,18.5928313 C11.188261,18.5928313 10.6055294,17.9902561 10.6055294,17.2727987 L10.6055294,15.4277295 C10.6253731,14.9223414 10.2747498,14.1257047 9.63447948,13.1941467 C9.42057428,12.9603978 9.20647376,12.7086022 9.0519042,12.4173146 C9.03206055,12.3776663 9.0122169,12.3598148 8.99420917,12.3201275 C8.5860471,11.6206778 8.3721419,10.824002 8.3721419,10.029045 C8.3721419,7.48433083 10.4509599,5.40730973 12.9938381,5.40730973 C15.5367163,5.38746607 17.6155343,7.46464343 17.6155343,10.0092013 Z M11.3231822,16.4563183 L14.6823845,16.4563183 L14.6823845,15.7963606 L11.3231822,15.7963606 L11.3231822,16.4563183 Z M14.6823845,17.3123297 L14.6823845,17.1756116 L11.3231822,17.1756116 L11.3231822,17.3123297 C11.3626742,17.623461 11.6144698,17.8553739 11.925562,17.8553739 L14.0818015,17.8553739 C14.3910969,17.8553739 14.6446894,17.623461 14.6823845,17.3123297 Z M16.8962409,10.0092013 C16.8962409,7.85300091 15.1482026,6.10496257 12.9920022,6.10496257 C10.8358017,6.10496257 9.0877634,7.85300091 9.0877634,10.0092013 C9.0877634,10.7088073 9.28202027,11.3885696 9.63080763,11.9909885 C9.78553343,12.2625888 9.96178257,12.4963767 10.1560394,12.7104381 L10.1955314,12.7499692 C10.8358017,13.6635194 11.2061124,14.4403125 11.3033385,15.0805828 L14.7021891,15.0805828 C14.8191026,14.283907 15.3623031,13.3722318 15.8478476,12.6924304 C15.8478476,12.6725868 15.8674959,12.6725868 15.8873396,12.6527822 C16.0617528,12.4783689 16.2181583,12.2644247 16.333353,12.0503632 C16.333353,12.0305196 16.3530404,12.0305196 16.3530404,12.0108322 C16.3530404,11.9909885 16.3728841,11.9909885 16.3728841,11.9713011 C16.7217105,11.3885696 16.8962409,10.7088073 16.8962409,10.0092013 Z" id="001-light-bulb-on" fill="#AE8541"></path>
            </g>
        </g>
    </g>
</svg>