<?xml version="1.0" encoding="UTF-8"?>
<svg width="29px" height="31px" viewBox="0 0 29 31" version="1.1" xmlns="http://www.w3.org/2000/svg" xmlns:xlink="http://www.w3.org/1999/xlink">
    <!-- Generator: Sketch 50.2 (55047) - http://www.bohemiancoding.com/sketch -->
    <title>screen_invitevisitor</title>
    <desc>Created with Sketch.</desc>
    <defs></defs>
    <g id="Welcome" stroke="none" stroke-width="1" fill="none" fill-rule="evenodd">
        <g id="add_group_details_config" transform="translate(-314.000000, -1274.000000)" fill="#777777">
            <g id="screen_invitevisitor" transform="translate(314.361980, 1274.548077)">
                <path d="M26.2511319,27.9592998 C26.1743176,27.7169222 26.0370113,27.4919786 25.8427816,27.3077529 L17.902065,19.773339 L26.564298,13.3481403 L26.564298,26.9323398 C26.564298,27.3122576 26.4487547,27.6654982 26.2511319,27.9592998 Z M2.93567587,28.7744208 C2.73840407,28.7622522 2.65743605,28.6178085 2.63187028,28.5536308 C2.60507594,28.4864695 2.5598532,28.3143539 2.71705051,28.165113 L11.1213441,20.1908158 C11.1608921,20.1619153 11.1972809,20.1276326 11.2296915,20.0880847 L12.4142584,18.9640683 C12.8233107,18.57596 13.3483158,18.3819059 13.8732039,18.3819059 C14.3980919,18.3819059 14.9230385,18.57596 15.3320908,18.9640683 L25.0294157,28.165113 C25.186613,28.3143539 25.1413903,28.4864695 25.1145959,28.5536308 C25.0889717,28.6178085 25.0078866,28.7621937 24.8107318,28.7744208 C24.7805443,28.7758834 2.96574637,28.7758834 2.93567587,28.7744208 Z M1.51171512,12.1089317 L2.36170385,11.3024106 L2.36170385,11.5340821 C2.36170385,11.8605283 2.626254,12.1250785 2.95270022,12.1250785 C3.27920494,12.1250785 3.54375509,11.8605283 3.54375509,11.5340821 L3.54375509,4.56363626 L18.5132449,4.56363626 C18.5149415,4.56363626 18.5165796,4.56387028 18.5182177,4.56387028 C18.5197972,4.56387028 18.5213768,4.56363626 18.5228979,4.56363626 L24.2025356,4.56363626 L24.2025356,11.5461922 C24.2025356,11.8726969 24.4670858,12.1371886 24.7935905,12.1371886 C25.1200367,12.1371886 25.3845868,11.8726969 25.3845868,11.5461922 L25.3845868,11.3024106 L26.2417714,12.1157765 L17.0316588,18.9474535 L16.1455738,18.1067082 C14.8713219,16.8976286 12.8750273,16.8974531 11.6006584,18.1067082 L10.7218278,18.9406086 L1.51171512,12.1089317 Z M12.4142584,1.76427217 C13.232363,0.987997093 14.5139862,0.988172602 15.3320323,1.76427217 L17.0366315,3.38164353 L10.7096007,3.38164353 L12.4142584,1.76427217 Z M25.3846453,9.67304615 L25.3846453,3.9726399 C25.3846453,3.64619368 25.1200952,3.38164353 24.793649,3.38164353 L18.7539259,3.38164353 L16.1456323,0.906853561 C14.871439,-0.30228452 12.8750858,-0.30228452 11.6007169,0.906853561 L8.99254033,3.38164353 L2.95270022,3.38164353 C2.626254,3.38164353 2.36170385,3.64619368 2.36170385,3.9726399 L2.36170385,9.67304615 L0.184167151,11.7391348 C-0.0526526163,11.963786 -0.0601994913,12.3356305 0.162228561,12.5746148 C0.264316134,12.6843078 9.85136301,19.7664942 9.85136301,19.7664942 L1.90350908,27.3076944 C1.70927943,27.4919201 1.57197311,27.7168052 1.49515879,27.9592998 C1.29753597,27.6656152 1.18199273,27.3121991 1.18199273,26.9323398 L1.18199273,13.3574788 L0.62184594,12.911837 L0,12.446591 L0,26.9323398 C0,28.5244379 1.23604942,29.8323874 2.79877907,29.9492177 C2.85225073,29.9548339 24.8942155,29.9548339 24.9478041,29.9492177 C26.5103583,29.8322703 27.7462907,28.5243794 27.7462907,26.9323398 L27.7462907,12.2637889 C27.7462907,12.0627729 27.6950422,11.8749786 27.5076573,11.6874767 L25.3846453,9.67304615 Z" id="Fill-1" stroke="#F4F7F8" stroke-width="0.3"></path>
                <rect id="Path" x="0.107693403" y="11.9682148" width="1" height="1.99689922" rx="0.5"></rect>
                <rect id="Path" x="2.47692362" y="9.98449612" width="1" height="3.99379845" rx="0.5"></rect>
                <rect id="Path" x="24.302563" y="9.98449612" width="1" height="3.99379845" rx="0.5"></rect>
                <rect id="Rectangle" x="6.48992248" y="7.9875969" width="15.475969" height="1" rx="0.5"></rect>
                <rect id="Rectangle" x="6.48992248" y="11.9813953" width="15.475969" height="1" rx="0.5"></rect>
            </g>
        </g>
    </g>
</svg>