<?xml version="1.0" encoding="UTF-8"?>
<svg width="15px" height="18px" viewBox="0 0 15 18" version="1.1" xmlns="http://www.w3.org/2000/svg" xmlns:xlink="http://www.w3.org/1999/xlink">
    <!-- Generator: Sketch 50.2 (55047) - http://www.bohemiancoding.com/sketch -->
    <title>003-lock-2</title>
    <desc>Created with Sketch.</desc>
    <defs>
        <polygon id="path-1" points="0.00255948431 0.0170632287 0.00255948431 17.4898948 14.2054792 17.4898948 14.2054792 0.0170632287 0.00255948431 0.0170632287"></polygon>
    </defs>
    <g id="Welcome" stroke="none" stroke-width="1" fill="none" fill-rule="evenodd">
        <g id="access_control_employees" transform="translate(-20.000000, -61.000000)">
            <g id="003-lock-2" transform="translate(20.000000, 61.000000)">
                <g id="Group-3">
                    <mask id="mask-2" fill="white">
                        <use xlink:href="#path-1"></use>
                    </mask>
                    <g id="Clip-2"></g>
                    <path d="M1.27974216,17.4898948 L12.9259077,17.4898948 C13.6301071,17.4898948 14.2054792,16.9143094 14.2054792,16.2101526 L14.2054792,9.25036022 C14.2054792,8.54616077 13.6301071,7.97061807 12.9259077,7.97061807 L12.0250972,7.97061807 L12.0250972,4.93925017 C12.0250972,2.22611148 9.81583562,0.0170632287 7.1027396,0.0170632287 C4.38960091,0.0170632287 2.18055266,2.22611148 2.18055266,4.93925017 L2.18055266,7.97061807 L1.27974216,7.97061807 C0.575542705,7.97061807 0,8.54616077 0,9.25036022 L0,16.2101526 C0,16.9143094 0.575542705,17.4898948 1.27974216,17.4898948 Z M3.05623756,4.93925017 C3.05623756,2.70870225 4.87219168,0.892876102 7.1027396,0.892876102 C9.33328752,0.892876102 11.1492416,2.70870225 11.1492416,4.93925017 L11.1492416,7.97061807 L3.05623756,7.97061807 L3.05623756,4.93925017 Z M0.875812873,9.25036022 C0.875812873,9.02875154 1.05813347,8.84643094 1.27974216,8.84643094 L12.9259077,8.84643094 C13.1475164,8.84643094 13.3297943,9.02875154 13.3297943,9.25036022 L13.3297943,16.2101526 C13.3297943,16.4317613 13.1475164,16.6140392 12.9259077,16.6140392 L1.27974216,16.6140392 C1.05813347,16.6140392 0.875812873,16.4317613 0.875812873,16.2101526 L0.875812873,9.25036022 Z" id="Fill-1" fill="#FFFFFF" mask="url(#mask-2)"></path>
                </g>
                <path d="M7.1027396,14.5121481 C8.08588018,14.5121481 8.88652953,13.7114561 8.88652953,12.7283155 C8.88652953,11.7453455 8.08588018,10.9446962 7.1027396,10.9446962 C6.11976965,10.9446962 5.31907764,11.7453455 5.31907764,12.7283155 C5.31907764,13.714954 6.11976965,14.5121481 7.1027396,14.5121481 Z M7.1027396,11.824007 C7.60328941,11.824007 8.01071666,12.2316049 8.01071666,12.7319841 C8.01071666,13.2324059 7.60328941,13.6400038 7.1027396,13.6400038 C6.60231776,13.6400038 6.19476254,13.2324059 6.19476254,12.7319841 C6.19476254,12.2316049 6.60231776,11.824007 7.1027396,11.824007 Z" id="Fill-4" fill="#FFFFFF"></path>
            </g>
        </g>
    </g>
</svg>