<?xml version="1.0" encoding="iso-8859-1"?>
<!-- Generator: Adobe Illustrator 19.0.0, SVG Export Plug-In . SVG Version: 6.00 Build 0)  -->
<svg xmlns="http://www.w3.org/2000/svg" xmlns:xlink="http://www.w3.org/1999/xlink" version="1.1" id="Capa_1" x="0px" y="0px" viewBox="0 0 480 480" style="enable-background:new 0 0 480 480;" xml:space="preserve" width="512px" height="512px">
<g>
	<g>
		<g>
			<path d="M240,0C107.452,0,0,107.452,0,240s107.452,240,240,240s240-107.452,240-240C479.85,107.514,372.486,0.15,240,0z M240,464     C116.288,464,16,363.712,16,240S116.288,16,240,16s224,100.288,224,224C463.859,363.653,363.653,463.859,240,464z" fill="#999999"/>
			<path d="M288,220c24.301,0,44-19.699,44-44c-0.031-24.288-19.712-43.969-44-44c-24.301,0-44,19.699-44,44S263.699,220,288,220z      M288,148c15.464,0,28,12.536,28,28s-12.536,28-28,28c-15.464,0-28-12.536-28-28S272.536,148,288,148z" fill="#999999"/>
			<path d="M455.613,249.538c-0.501-1.561-1.469-2.93-2.773-3.922l-36.8-28c-2.293-1.748-5.349-2.127-8-0.992     c-0.569,0.253-1.106,0.573-1.6,0.952c-3.093-23.113-10.997-45.321-23.2-65.192c10.522-7.426,16.774-19.506,16.76-32.384     c0.067-22.025-17.733-39.934-39.758-40.002c-11.986-0.037-23.352,5.319-30.954,14.586c-4.219-1.709-8.566-3.084-13-4.112     c-0.219-0.192-0.449-0.371-0.688-0.536c-62.917-31.652-138.893-20.735-190.352,27.352c-0.279,0.331-0.531,0.684-0.752,1.056     C109.848,121.56,98.229,132.7,94.4,147.2c-16.832,4.318-29.164,18.706-30.856,36c-0.239,2.729-0.185,5.475,0.16,8.192     c-26.694,11.616-38.917,42.673-27.301,69.367c4.052,9.311,10.707,17.254,19.165,22.873c-0.811,2.604-1.347,5.285-1.6,8     c-1.34,18.195,9.332,35.14,26.32,41.792c2.933,48.446,44.585,85.341,93.031,82.408c12.872-0.779,25.414-4.382,36.737-10.552     c9.358,1.671,18.839,2.557,28.344,2.648c0.002,1.534,0.45,3.035,1.288,4.32l22.936,34.632c1.48,2.241,3.986,3.591,6.672,3.592     h0.096c2.714-0.033,5.226-1.44,6.672-3.736l19.608-31.136c3.73,1.729,7.793,2.621,11.904,2.616     c5.58-0.026,11.044-1.599,15.784-4.544l24.408-17.936c26.67-19.63,48.066-45.555,62.28-75.464l10.976-23.144     c3.917-8.93,3.066-19.234-2.264-27.4l31.68-10.128C454.647,258.25,456.963,253.745,455.613,249.538z M328.416,111.808     l6.888,3.496l3.736-6.776c6.327-11.597,20.857-15.87,32.454-9.543s15.87,20.857,9.543,32.454     c-2.726,4.997-7.144,8.858-12.461,10.889l0.008,0l-7.2,2.792l2.528,7.296c13.105,37.623-6.771,78.745-44.393,91.85     c-37.623,13.105-78.745-6.771-91.85-44.393c-13.105-37.623,6.771-78.745,44.393-91.85     C290.58,101.572,310.927,102.939,328.416,111.808z M132.872,133.432c13.255,0,24,10.745,24,24s-10.745,24-24,24s-24-10.745-24-24     S119.617,133.432,132.872,133.432z M140.424,244.44v0.04c-2.248,0.744-4.488,1.512-6.68,2.4c-0.472,0.2-0.912,0.44-1.376,0.64     c-13.03,2.432-25.564-6.16-27.996-19.189c-2.432-13.03,6.16-25.564,19.189-27.996s25.564,6.16,27.996,19.189     C153.389,229.337,148.955,239.258,140.424,244.44z M69.888,293.048c0.309-3.149,1.233-6.207,2.72-9l3.736-7.096l-7.104-3.712     c-18.507-8.736-26.428-30.822-17.691-49.329c4.632-9.812,13.332-17.101,23.803-19.943l7.648-2.4l-2.448-7.648     c-0.984-3.002-1.357-6.171-1.096-9.32c0.89-8.68,6.25-16.265,14.136-20c1.802,9.758,7.175,18.495,15.072,24.504     c-0.208,0.112-0.448,0.176-0.656,0.296c-19.122,11-25.706,35.419-14.706,54.542c4.199,7.3,10.598,13.085,18.282,16.53     c-16.744,13.971-27.689,33.674-30.704,55.272C73.417,310.692,69.224,302.036,69.888,293.048z M168,400     c-39.703,0.062-71.938-32.073-72-71.776c0-0.075,0-0.149,0-0.224c0-39.765,32.236-72,72-72c39.765,0,72,32.235,72,72     C240,367.764,207.765,400,168,400z M269.128,427.728l-8.328-12.592l16.8-0.8L269.128,427.728z M279.264,385.232     c-0.08,0.544,0,1.088-0.064,1.6c-16.459,4.35-33.525,5.94-50.504,4.704c35.152-33.472,36.513-89.103,3.041-124.255     C215.127,249.838,192.086,239.976,168,240c-1.192,0-2.4,0.128-3.552,0.176c7.603-16.883,2.559-36.778-12.168-48     c19.224-10.567,26.242-34.717,15.676-53.941c-4.646-8.452-12.208-14.925-21.276-18.211C173.336,99.224,206.189,87.95,240,88     c10.757,0.008,21.483,1.15,32,3.408c-46.746,13.219-73.924,61.83-60.705,108.576c13.219,46.746,61.83,73.924,108.576,60.705     c33.443-9.457,58.182-37.72,63.129-72.121c7.797,21.543,10.582,44.58,8.144,67.36h-0.04c-10.823,0.76-20.326,7.471-24.664,17.416     l-8.184,16.576c-11.615,23.51-28.152,44.245-48.488,60.8l-18.216,14.88C284.889,370.136,280.432,377.257,279.264,385.232z      M406.4,290.568l-10.84,22.848c-13.078,27.514-32.762,51.365-57.296,69.424l-23.824,17.552c-5.445,3.32-12.502,2.126-16.552-2.8     c-4.522-5.433-3.784-13.504,1.649-18.027c0.367-0.306,0.751-0.591,1.151-0.853l19.2-15.6     c22.103-17.991,40.075-40.528,52.696-66.08l8.4-16.96c3.007-6.979,11.102-10.2,18.081-7.193c3.292,1.418,5.9,4.065,7.271,7.377     C407.724,283.549,407.747,287.258,406.4,290.568z M415.784,253.848l1.72-14.976l13.384,10.176L415.784,253.848z" fill="#999999"/>
			<rect x="184" y="288" width="16" height="16" fill="#999999"/>
			<rect x="208" y="312" width="16" height="16" fill="#999999"/>
			<rect x="184" y="344" width="16" height="16" fill="#999999"/>
			<rect x="120" y="344" width="16" height="16" fill="#999999"/>
			<rect x="136" y="288" width="16" height="16" fill="#999999"/>
			<rect x="152" y="368" width="16" height="16" fill="#999999"/>
			<rect x="152" y="320" width="16" height="16" fill="#999999"/>
		</g>
	</g>
</g>
<g>
</g>
<g>
</g>
<g>
</g>
<g>
</g>
<g>
</g>
<g>
</g>
<g>
</g>
<g>
</g>
<g>
</g>
<g>
</g>
<g>
</g>
<g>
</g>
<g>
</g>
<g>
</g>
<g>
</g>
</svg>
