<?xml version="1.0" encoding="UTF-8"?>
<svg width="24px" height="24px" viewBox="0 0 24 24" version="1.1" xmlns="http://www.w3.org/2000/svg" xmlns:xlink="http://www.w3.org/1999/xlink">
    <!-- Generator: Sketch 50.2 (55047) - http://www.bohemiancoding.com/sketch -->
    <title>010-ring</title>
    <desc>Created with Sketch.</desc>
    <defs>
        <polygon id="path-1" points="0.00351219512 0.0234731707 0.00351219512 23.9998829 23.9765674 23.9998829 23.9765674 0.0234731707 0.00351219512 0.0234731707"></polygon>
    </defs>
    <g id="Welcome" stroke="none" stroke-width="1" fill="none" fill-rule="evenodd">
        <g id="ac_visitor_activity" transform="translate(-1046.000000, -13.000000)">
            <g id="010-ring" transform="translate(1046.014599, 13.000000)">
                <mask id="mask-2" fill="white">
                    <use xlink:href="#path-1"></use>
                </mask>
                <g id="Clip-2"></g>
                <path d="M23.6229659,17.1582439 C20.8029073,14.3374829 20.3785171,12.9220683 20.3785171,8.41521951 C20.3785171,3.78052683 16.6223415,0.0234731707 11.9883512,0.0234731707 C7.35459512,0.0234731707 3.59818537,3.78052683 3.59818537,8.41521951 C3.59818537,10.8451902 3.5334439,11.7525073 3.19890732,12.8660488 C2.78300488,14.2535415 1.9289561,15.5818537 0.353268293,17.1582439 C-0.401502439,17.9134829 0.133053659,19.2046829 1.20093659,19.2046829 L7.85326829,19.2046829 L7.79291707,19.804039 C7.79291707,22.1215024 9.67112195,23.9998829 11.9878829,23.9998829 C14.304878,23.9998829 16.1830829,22.1215024 16.1830829,19.804039 L16.1227317,19.2046829 L22.7752976,19.2046829 C23.8435902,19.2046829 24.3782049,17.9134829 23.6229659,17.1582439 Z M11.9888195,22.8012878 C10.3339902,22.8012878 8.99198049,21.4588098 8.99198049,19.804039 L9.05239024,19.2046829 L14.9243122,19.2046829 L14.9853659,19.804039 C14.9853659,21.4588098 13.6435902,22.8012878 11.9888195,22.8012878 Z M1.20134634,18.0058537 C4.79701463,14.4093073 4.79701463,12.0118244 4.79701463,8.41521951 C4.79701463,4.44321951 8.01652683,1.22230244 11.9883512,1.22230244 C15.9601171,1.22230244 19.1796293,4.44321951 19.1800976,8.41521951 C19.1800976,12.0118244 19.1800976,14.4093073 22.7757659,18.0058537 L1.20134634,18.0058537 Z" id="Fill-1" fill="#9B9B9B" mask="url(#mask-2)"></path>
            </g>
        </g>
    </g>
</svg>