<?xml version="1.0" encoding="UTF-8"?>
<svg width="30px" height="33px" viewBox="0 0 30 33" version="1.1" xmlns="http://www.w3.org/2000/svg" xmlns:xlink="http://www.w3.org/1999/xlink">
    <!-- Generator: Sketch 50.2 (55047) - http://www.bohemiancoding.com/sketch -->
    <title>008-agenda-1</title>
    <desc>Created with Sketch.</desc>
    <defs></defs>
    <g id="Welcome" stroke="none" stroke-width="1" fill="none" fill-rule="evenodd">
        <g id="add_group_details_config" transform="translate(-313.000000, -1483.000000)" fill="#777777">
            <g id="008-agenda-1" transform="translate(313.861980, 1483.850962)">
                <path d="M21.3370989,19.7745136 C21.0942641,19.3183172 20.6884353,18.9838354 20.1947817,18.8325627 C19.7007034,18.6823092 19.177152,18.732422 18.7206158,18.9755965 C18.3523291,19.170357 17.9296828,19.2118062 17.5314983,19.0906861 C17.1386649,18.9702455 16.8025693,18.6929263 16.6095076,18.3305853 L14.1639177,13.731079 C13.9651652,13.3581208 13.923716,12.9301234 14.0474691,12.5259934 C14.1712223,12.1222031 14.4445494,11.7904393 14.8181871,11.5916868 C15.7495209,11.0959947 16.1042177,9.93507631 15.6091201,9.00374253 L14.7391958,7.36777173 C14.5049396,6.92779827 14.1138049,6.60529263 13.6376483,6.459286 C13.1599628,6.31463835 12.6549277,6.36279761 12.2176722,6.59637425 L11.7505189,6.84388056 C10.9084539,7.2927724 10.2216536,8.01507631 9.81718381,8.87803583 C9.16087591,10.2784764 9.20241009,11.9294811 9.92802654,13.294418 L14.5912356,22.0625455 C15.3188056,23.430795 16.6688786,24.3906676 18.2013962,24.6295103 C18.4243557,24.6639947 18.6496085,24.6815766 18.875286,24.6815766 C19.5958912,24.6815766 20.3164964,24.5047379 20.9548825,24.1656695 L21.4263676,23.9151904 C21.8665959,23.6809343 22.1887618,23.2897996 22.3340889,22.8129635 C22.4800956,22.3368918 22.4313417,21.8326211 22.1970856,21.3929874 L21.3370989,19.7745136 Z M21.2946304,22.4954691 C21.2335607,22.6942216 21.0995302,22.8574705 20.9174253,22.9543835 L20.444921,23.2057969 C19.8125654,23.5412979 19.0756523,23.6666649 18.3682973,23.5552276 C17.172215,23.368706 16.1187419,22.6199018 15.5507684,21.5515647 L10.8878991,12.7834373 C10.3217943,11.7190922 10.2896881,10.4317877 10.8012634,9.33924353 C11.1072064,8.68794691 11.6257465,8.1428215 12.2608202,7.80400796 L12.7279735,7.55684141 C12.8414492,7.49585667 12.9654572,7.46493962 13.0915886,7.46493962 C13.167862,7.46493962 13.2442203,7.47657598 13.3198142,7.49950896 C13.5182269,7.5598142 13.6818155,7.69486397 13.7790683,7.87807299 L14.6496722,9.51472329 C14.8629489,9.91656005 14.7093829,10.4181977 14.3066118,10.6318142 C13.6774837,10.966296 13.2156815,11.5263703 13.0076709,12.208499 C12.7995753,12.890288 12.8689688,13.6125919 13.2040451,14.241635 L15.649635,18.8419058 C15.982418,19.4652581 16.5371413,19.9231533 17.214004,20.1304844 C17.8915461,20.3362017 18.6064605,20.2668932 19.2319363,19.9347896 C19.6449847,19.7144632 20.1582588,19.8730405 20.377566,20.2851546 L21.2375528,21.9026092 L21.2375528,21.9032887 C21.3351453,22.0864127 21.3553603,22.2970564 21.2946304,22.4954691 Z" id="Fill-1"></path>
                <path d="M25.5799549,0.0339747843 L5.40513338,0.0339747843 C3.77340942,0.0339747843 2.44626941,1.38234904 2.44626941,3.03963902 L2.44626941,8.90793364 L0.543426676,8.90793364 C0.243174519,8.90793364 0,9.15076841 0,9.45136032 C0,9.75195222 0.243174519,9.99478699 0.543426676,9.99478699 L2.44626941,9.99478699 L2.44626941,21.4105693 L0.543426676,21.4105693 C0.243174519,21.4105693 0,21.6537439 0,21.953996 C0,22.2545879 0.243174519,22.4978474 0.543426676,22.4978474 L2.44626941,22.4978474 L2.44626941,28.9092289 C2.44626941,30.5668587 3.77340942,31.9152329 5.40513338,31.9152329 L25.5799549,31.9152329 C27.2116788,31.9152329 28.5388188,30.5668587 28.5388188,28.9092289 L28.5388188,3.03963902 C28.5388188,1.38234904 27.2116788,0.0339747843 25.5799549,0.0339747843 Z M27.4515408,28.9092289 C27.4515408,29.9672887 26.6117691,30.8279549 25.5799549,30.8279549 L5.40513338,30.8279549 C4.37323424,30.8279549 3.53354745,29.9672887 3.53354745,28.9092289 L3.53354745,22.4978474 L5.43596549,22.4978474 C5.7365574,22.4978474 5.97939217,22.2545879 5.97939217,21.953996 C5.97939217,21.6537439 5.7365574,21.4105693 5.43596549,21.4105693 L3.53354745,21.4105693 L3.53354745,9.99478699 L5.43596549,9.99478699 C5.7365574,9.99478699 5.97939217,9.75195222 5.97939217,9.45136032 C5.97939217,9.15076841 5.7365574,8.90793364 5.43596549,8.90793364 L3.53354745,8.90793364 L3.53354745,3.03963902 C3.53354745,1.9815793 4.37323424,1.12125282 5.40513338,1.12125282 L25.5799549,1.12125282 C26.6117691,1.12125282 27.4515408,1.9815793 27.4515408,3.03963902 L27.4515408,28.9092289 Z" id="Fill-2"></path>
            </g>
        </g>
    </g>
</svg>