<?xml version="1.0" encoding="UTF-8"?>
<svg width="17px" height="29px" viewBox="0 0 17 29" version="1.1" xmlns="http://www.w3.org/2000/svg" xmlns:xlink="http://www.w3.org/1999/xlink">
    <!-- Generator: Sketch 50.2 (55047) - http://www.bohemiancoding.com/sketch -->
    <title>010-smartphone-1</title>
    <desc>Created with Sketch.</desc>
    <defs></defs>
    <g id="Welcome" stroke="none" stroke-width="1" fill="none" fill-rule="evenodd">
        <g id="access_control_employees" transform="translate(-1170.000000, -190.000000)" fill="#9B9B9B">
            <g id="010-smartphone-1" transform="translate(1170.688529, 190.000000)">
                <path d="M13.879605,0 L2.0660541,0 C0.927161872,0 0,0.927161872 0,2.0657793 L0,26.0728553 C0,27.2120223 0.927161872,28.1392529 2.0660541,28.1392529 L13.8793989,28.1392529 C15.0185659,28.1392529 15.9457278,27.2120223 15.9457278,26.0731301 L15.9457278,2.0657793 C15.9457278,0.927161872 15.0185659,0 13.879605,0 Z M0.938222413,21.5733448 L15.0075054,21.5733448 L15.0075054,3.75185917 L0.938222413,3.75185917 L0.938222413,21.5733448 Z M2.0660541,0.937878918 L13.8793989,0.937878918 C14.5016745,0.937878918 15.0075054,1.44405324 15.0075054,2.0657793 L15.0075054,2.81398025 L0.938222413,2.81398025 L0.938222413,2.0657793 C0.938222413,1.44405324 1.44405324,0.937878918 2.0660541,0.937878918 Z M13.879605,27.2010305 L2.0660541,27.2010305 C1.44405324,27.2010305 0.938222413,26.6951997 0.938222413,26.0731301 L0.938222413,22.5112924 L15.0075054,22.5112924 L15.0075054,26.0731301 C15.0075054,26.6951997 14.5016745,27.2010305 13.879605,27.2010305 Z" id="Fill-1"></path>
                <path d="M7.98075499,22.8934817 C6.94621656,22.8934817 6.10492846,23.7347698 6.10492846,24.7692396 C6.10492846,25.803778 6.94621656,26.6453409 7.98075499,26.6453409 C9.01529342,26.6453409 9.85685632,25.803778 9.85685632,24.7692396 C9.85685632,23.7347698 9.01529342,22.8934817 7.98075499,22.8934817 Z M7.98075499,25.7071872 C7.46338273,25.7071872 7.04287607,25.2866805 7.04287607,24.7692396 C7.04287607,24.2521421 7.46338273,23.8313606 7.98075499,23.8313606 C8.49812726,23.8313606 8.91863391,24.2521421 8.91863391,24.7692396 C8.91863391,25.2866805 8.49812726,25.7071872 7.98075499,25.7071872 Z" id="Fill-2"></path>
                <path d="M6.95556334,2.46417973 L8.83138988,2.46417973 C9.09059125,2.46417973 9.30046674,2.25457904 9.30046674,1.99537767 C9.30046674,1.7358328 9.09059125,1.52623211 8.83138988,1.52623211 L6.95556334,1.52623211 C6.69608717,1.52623211 6.48648649,1.7358328 6.48648649,1.99537767 C6.48648649,2.25457904 6.69608717,2.46417973 6.95556334,2.46417973 Z" id="Fill-3"></path>
            </g>
        </g>
    </g>
</svg>