<?xml version="1.0" encoding="UTF-8"?>
<svg width="37px" height="36px" viewBox="0 0 37 36" version="1.1" xmlns="http://www.w3.org/2000/svg" xmlns:xlink="http://www.w3.org/1999/xlink">
    <!-- Generator: Sketch 50.2 (55047) - http://www.bohemiancoding.com/sketch -->
    <title>Group 8</title>
    <desc>Created with Sketch.</desc>
    <defs>
        <polygon id="path-1" points="11.9384348 0.156869565 0.0208695652 0.156869565 0.0208695652 23.9993043 23.856 23.9993043 23.856 0.156869565"></polygon>
    </defs>
    <g id="Welcome" stroke="none" stroke-width="1" fill="none" fill-rule="evenodd">
        <g id="access_control_add_groups" transform="translate(-235.000000, -367.000000)">
            <g id="Group-8" transform="translate(235.000000, 367.000000)">
                <circle id="Oval-3" fill="#EEEEEE" cx="18.3619797" cy="18" r="18"></circle>
                <g id="screen_time_grey" transform="translate(6.361980, 6.000000)">
                    <g id="Group-3">
                        <mask id="mask-2" fill="white">
                            <use xlink:href="#path-1"></use>
                        </mask>
                        <g id="Clip-2"></g>
                        <path d="M22.9036522,7.43547826 C21.6466087,4.50330435 19.5095652,2.37008696 16.5516522,1.10921739 C15.0747826,0.478956522 13.525913,0.156869565 11.9088696,0.156869565 C10.2907826,0.156869565 8.75408696,0.476173913 7.2786087,1.10921739 C4.34643478,2.36765217 2.19965217,4.49808696 0.938782609,7.43547826 C0.308521739,8.90678261 0,10.4476522 0,12.0657391 C0,13.6827826 0.308521739,15.2372174 0.938782609,16.7085217 C2.19965217,19.645913 4.34643478,21.7902609 7.2786087,23.0483478 C8.75408696,23.6813913 10.2907826,23.9993043 11.9088696,23.9993043 C13.525913,23.9993043 15.0747826,23.6786087 16.5516522,23.0483478 C19.5081739,21.7874783 21.6452174,19.6406957 22.9036522,16.7085217 C23.5366957,15.2330435 23.856,13.6827826 23.856,12.0657391 C23.856,10.4476522 23.538087,8.91095652 22.9036522,7.43547826 Z M21,17.3349565 C20.064,18.9408696 18.7812174,20.2153043 17.1645217,21.1568696 C15.5596522,22.0932174 13.8003478,22.565913 11.9088696,22.565913 C10.4876522,22.565913 9.13043478,22.2914783 7.83965217,21.7304348 C6.54747826,21.1690435 5.4333913,20.4326957 4.50017391,19.5005217 C3.568,18.5673043 2.82469565,17.4424348 2.27026087,16.1474783 C1.71617391,14.8594783 1.44834783,13.4869565 1.44834783,12.0657391 C1.44834783,10.1746087 1.91304348,8.42330435 2.84382609,6.8226087 C3.77843478,5.21530435 5.06121739,3.93947826 6.66573913,3.00069565 C8.26886957,2.06191304 10.0177391,1.59165217 11.9088696,1.59165217 C13.8003478,1.59165217 15.5582609,2.06469565 17.1645217,3.00069565 C18.7798261,3.94226087 20.0598261,5.21808696 21,6.8226087 C21.9387826,8.42608696 22.4076522,10.1746087 22.4076522,12.0657391 C22.4076522,13.9572174 21.9415652,15.7193043 21,17.3349565 Z" id="Fill-1" stroke="#EEEEEE" stroke-width="0.5" fill="#777777" mask="url(#mask-2)"></path>
                    </g>
                    <path d="M12.6643478,11.9613913 L12.6643478,5.20452174 C12.6643478,4.79965217 12.3123478,4.4733913 11.9088696,4.4733913 C11.5297391,4.4733913 11.1916522,4.79965217 11.1916522,5.20452174 L11.1916522,12.0657391 C11.1916522,12.0782609 11.2173913,12.1311304 11.2173913,12.1690435 C11.1916522,12.4041739 11.2566957,12.6 11.4128696,12.7575652 L15.3123478,16.6570435 C15.5732174,16.917913 16.0570435,16.917913 16.3165217,16.6570435 C16.6166957,16.3565217 16.597913,15.9217391 16.3165217,15.6393043 L12.6643478,11.9613913 Z" id="Fill-4" stroke="#EEEEEE" stroke-width="0.5" fill="#777777"></path>
                </g>
            </g>
        </g>
    </g>
</svg>