<?xml version="1.0" encoding="UTF-8"?>
<svg width="36px" height="24px" viewBox="0 0 36 24" version="1.1" xmlns="http://www.w3.org/2000/svg" xmlns:xlink="http://www.w3.org/1999/xlink">
    <!-- Generator: Sketch 50.2 (55047) - http://www.bohemiancoding.com/sketch -->
    <title>screen_travelrequest</title>
    <desc>Created with Sketch.</desc>
    <defs>
        <polygon id="path-1" points="0.00521811847 0.0251290793 0.00521811847 23.7423521 35.6219831 23.7423521 35.6219831 0.0251290793"></polygon>
    </defs>
    <g id="Welcome" stroke="none" stroke-width="1" fill="none" fill-rule="evenodd">
        <g id="add_group_details_config" transform="translate(-311.000000, -1382.000000)">
            <g id="screen_travelrequest" transform="translate(310.971361, 1382.279200)">
                <mask id="mask-2" fill="white">
                    <use xlink:href="#path-1"></use>
                </mask>
                <g id="Clip-2"></g>
                <path d="M35.6126149,0.713664669 C35.61505,0.699749686 35.6193985,0.685486829 35.6204421,0.671223972 C35.6245296,0.627391777 35.6197463,0.582863833 35.6147022,0.538335889 C35.6133107,0.527116934 35.61505,0.516245854 35.6133107,0.505026899 C35.6027875,0.446323066 35.5830456,0.388923763 35.554172,0.333524739 C35.5494757,0.323958188 35.5426921,0.315174355 35.537561,0.305607805 C35.5361695,0.30465115 35.5361695,0.302911777 35.5358216,0.300911498 C35.5352128,0.299867875 35.5334734,0.299172125 35.5327777,0.297519721 C35.5286902,0.291084042 35.5249505,0.283865645 35.52095,0.27777784 C35.4842492,0.223770314 35.4397213,0.179242369 35.3898013,0.141584948 C35.3785823,0.133062021 35.3653631,0.128278746 35.3537962,0.120799443 C35.3096162,0.0916649477 35.2634358,0.0678355401 35.2137767,0.0519202787 C35.1916867,0.0447018815 35.1696836,0.0413101045 35.1472457,0.037309547 C35.1041093,0.0280908711 35.0606249,0.0240033449 35.0154013,0.0253948432 C34.9920067,0.0257427178 34.9692209,0.0270472474 34.9453915,0.0304390244 C34.930172,0.0328741463 34.9152134,0.0304390244 34.8999069,0.034178676 L0.473196376,7.14899624 C0.228292683,7.19995986 0.0407882927,7.39868321 0.00573993031,7.6463699 C-0.0292214634,7.89431749 0.0947958188,8.13756878 0.315957073,8.25445463 L10.1804622,13.4576145 L11.9102684,23.0581698 C11.9093118,23.0653012 11.9109642,23.0727805 11.9102684,23.0799119 C11.9045285,23.1274838 11.9038328,23.1736641 11.9099206,23.2205402 C11.9127036,23.2442826 11.9157475,23.2667206 11.9218353,23.2898542 C11.9354024,23.3462099 11.9571445,23.3989129 11.9870617,23.4488329 C11.9928017,23.4583125 11.9928017,23.4695314 11.9993243,23.479098 C12.0013246,23.4821419 12.0040206,23.48449 12.0064557,23.4868382 C12.0142829,23.4980571 12.0248061,23.5069279 12.0339378,23.5181469 C12.0617678,23.5527604 12.0906414,23.5840691 12.1239504,23.6108555 C12.1294294,23.614943 12.1328212,23.6213787 12.138909,23.6254662 C12.1477798,23.6322498 12.1576072,23.6339891 12.166739,23.6397291 C12.202744,23.6635585 12.2401405,23.6832134 12.2798852,23.6985199 C12.2958874,23.7046077 12.310846,23.7117391 12.327457,23.7161745 C12.3807688,23.7318289 12.4358199,23.7423521 12.4915668,23.7423521 L12.4935671,23.7423521 C12.4960022,23.7423521 12.4983504,23.7413084 12.5006985,23.7413084 C12.510613,23.7420042 12.5207883,23.7423521 12.5309636,23.7423521 C12.6950734,23.7423521 12.8435289,23.6689505 12.9531964,23.5554564 L19.5241121,19.1751069 L26.4038534,23.6468605 C26.5009974,23.7097388 26.6137957,23.7423521 26.7272028,23.7423521 C26.7893854,23.7423521 26.8529594,23.7325246 26.9137505,23.712087 C27.0846439,23.6553834 27.2211847,23.523539 27.2833672,23.3540371 L35.5844371,0.82307122 C35.5919164,0.802633589 35.5986999,0.781935052 35.6038311,0.760540767 C35.6061792,0.751669965 35.606875,0.742886132 35.6085274,0.73471108 C35.6102668,0.727927526 35.6116583,0.720796098 35.6126149,0.713664669 Z M28.7434838,4.49949659 L14.5135877,14.962259 C14.4904541,14.9795657 14.4721037,15.00096 14.451753,15.0210498 C14.4442737,15.0281812 14.4364466,15.0339211 14.4300109,15.0417483 C14.4174004,15.0553154 14.4061815,15.0688825 14.3950495,15.0838411 C14.3841784,15.098104 14.3760033,15.1130626 14.3664368,15.1276733 C14.3444337,15.1633305 14.3260833,15.2000312 14.3117335,15.2390801 C14.3090375,15.2469073 14.3043412,15.2530821 14.3019061,15.2605614 C14.3012103,15.2629095 14.2988622,15.2642141 14.2981664,15.2666492 L12.6671565,20.566953 L11.3748895,13.3957798 L28.7434838,4.49949659 Z M13.586502,21.7080686 L15.2031621,16.3680201 L18.4403958,18.4722263 L15.9944028,20.1025405 L13.586502,21.7080686 Z M30.8667362,2.07898537 L10.7178414,12.3993801 L2.3315423,7.97624195 L30.8667362,2.07898537 Z M26.4275958,22.2478829 L17.2911052,16.309925 L15.9074341,15.4099735 L33.7914046,2.26005408 L26.4275958,22.2478829 Z" id="Fill-1" fill="#777777" mask="url(#mask-2)"></path>
            </g>
        </g>
    </g>
</svg>