<?xml version="1.0" encoding="UTF-8"?>
<svg width="42px" height="42px" viewBox="0 0 42 42" version="1.1" xmlns="http://www.w3.org/2000/svg" xmlns:xlink="http://www.w3.org/1999/xlink">
    <!-- Generator: Sketch 50.2 (55047) - http://www.bohemiancoding.com/sketch -->
    <title>user_default_small</title>
    <desc>Created with Sketch.</desc>
    <defs></defs>
    <g id="Welcome" stroke="none" stroke-width="1" fill="none" fill-rule="evenodd">
        <g id="access_control_employees" transform="translate(-262.000000, -186.000000)">
            <g id="user_default_small" transform="translate(262.861980, 187.000000)">
                <g>
                    <circle id="Oval" stroke="#9B9B9B" fill="#FFFFFF" cx="20" cy="20" r="20"></circle>
                    <g id="002-user">
                        <path d="M14.0169989,31.3795127 L8.06323367,34.6260797 C7.71400886,34.8181063 7.39772979,35.053433 7.10780731,35.3066445 C10.5784053,38.2331672 15.0609081,39.9981174 19.9547619,39.9981174 C24.81567,39.9981174 29.2689922,38.2595238 32.7292359,35.372536 C32.4129568,35.1042636 32.0627907,34.8614064 31.6806202,34.6703212 L25.3051495,31.4830565 C24.4815061,31.0707641 23.9590808,30.2292359 23.9590808,29.305814 L23.9590808,26.8057032 C24.1398117,26.6033223 24.3450166,26.3388151 24.5624585,26.0300664 C25.4341085,24.8016611 26.0883167,23.4518272 26.5439092,22.0361019 C27.3637874,21.7828904 27.967165,21.0289037 27.967165,20.1318383 L27.967165,17.4622924 C27.967165,16.8739756 27.706423,16.3477852 27.2978959,15.9806755 L27.2978959,12.1194352 C27.2978959,12.1194352 28.0923588,6.11483942 19.9547619,6.11483942 C11.8218715,6.11483942 12.6153931,12.1194352 12.6153931,12.1194352 L12.6153931,15.9806755 C12.2078073,16.3477852 11.946124,16.8739756 11.946124,17.4622924 L11.946124,20.1318383 C11.946124,20.8340532 12.3179402,21.4515504 12.869546,21.8120709 C13.5388151,24.7169435 15.2849391,26.8057032 15.2849391,26.8057032 L15.2849391,29.2474529 C15.2849391,30.1332226 14.7964009,30.9531008 14.0169989,31.3795127 Z" id="Fill-1" fill="#E7ECED"></path>
                        <path d="M20.2964563,0.092358804 C9.27657807,-0.0949612403 0.191085271,8.68554817 0.00376522702,19.7016611 C-0.102602436,25.9528793 2.68084164,31.5668328 7.11533776,35.2991141 C7.40526024,35.0496678 7.71400886,34.8181063 8.05946844,34.6260797 L14.0169989,31.3795127 C14.7964009,30.9531008 15.2811739,30.1369878 15.2811739,29.2436877 L15.2811739,26.8057032 C15.2811739,26.8057032 13.5350498,24.7131783 12.869546,21.8083056 C12.314175,21.4515504 11.946124,20.8340532 11.946124,20.1318383 L11.946124,17.4585271 C11.946124,16.8739756 12.2078073,16.3477852 12.6116279,15.9806755 L12.6116279,12.1194352 C12.6116279,12.1194352 11.8218715,6.1110742 19.9547619,6.1110742 C28.0885936,6.1110742 27.2978959,12.1194352 27.2978959,12.1194352 L27.2978959,15.9806755 C27.7026578,16.3477852 27.9633998,16.8739756 27.9633998,17.4585271 L27.9633998,20.1318383 C27.9633998,21.0289037 27.3600221,21.7828904 26.5439092,22.0361019 C26.0883167,23.4518272 25.4303433,24.8016611 24.5624585,26.0300664 C24.3412514,26.3388151 24.1398117,26.599557 23.9590808,26.8057032 L23.9590808,29.305814 C23.9590808,30.2292359 24.4777409,31.0707641 25.3013843,31.4830565 L31.6806202,34.6703212 C32.0627907,34.8614064 32.4091916,35.1004983 32.7254707,35.3697121 C37.0272425,31.7842746 39.8031561,26.4235327 39.9066999,20.3859911 C40.0977852,9.36611296 31.3172757,0.279678848 20.2964563,0.092358804 Z" id="Fill-3" fill="#9B9B9B"></path>
                    </g>
                </g>
            </g>
        </g>
    </g>
</svg>