<?xml version="1.0" encoding="UTF-8"?>
<svg width="52px" height="52px" viewBox="0 0 52 52" version="1.1" xmlns="http://www.w3.org/2000/svg" xmlns:xlink="http://www.w3.org/1999/xlink">
    <!-- Generator: Sketch 50.2 (55047) - http://www.bohemiancoding.com/sketch -->
    <title>Group 7</title>
    <desc>Created with Sketch.</desc>
    <defs>
        <polygon id="path-1" points="0.00908008695 0.0573558826 0.00908008695 24.7228111 15.7290799 24.7228111 15.7290799 0.0573558826 0.00908008695 0.0573558826"></polygon>
    </defs>
    <g id="Welcome" stroke="none" stroke-width="1" fill="none" fill-rule="evenodd">
        <g id="access_control_groups" transform="translate(-224.000000, -145.000000)">
            <g id="Group-7" transform="translate(225.361980, 146.000000)">
                <circle id="Oval-3" stroke="#4A5CA0" fill="#FFFFFF" cx="25" cy="25" r="25"></circle>
                <g id="004-office" transform="translate(8.121212, 11.363636)">
                    <path d="M22.3656874,15.6527959 L21.7402208,16.6228518 C23.6502171,17.854263 24.7905247,19.9404129 24.7905247,22.2033219 L24.7905247,25.3618302 L17.6269414,25.3618302 L21.8301137,18.1581432 L20.8328174,17.5770176 L17.2959722,23.6416077 L13.7585217,17.5770176 L12.7618308,18.1581432 L16.9654571,25.3618302 L9.80126846,25.3618302 L9.80126846,22.2033219 C9.80126846,19.9398076 10.941576,17.8536576 12.8517237,16.6222465 L12.2268624,15.6521905 C9.98574556,17.0981944 8.64855142,19.5466398 8.64855142,22.2033219 L8.64855142,26.5151526 L25.943847,26.5151526 L25.943847,22.2033219 C25.943847,19.5466398 24.6060476,17.0981944 22.3656874,15.6527959 Z" id="Fill-3" fill="#4A5CA0"></path>
                    <path d="M10.900867,10.3957282 C10.900867,13.9053331 13.755495,16.7605665 17.2658566,16.7605665 C20.7754616,16.7605665 23.6300896,13.9053331 23.6300896,10.3957282 C23.6300896,6.88657726 20.7754616,4.03134392 17.2658566,4.03134392 C13.755495,4.03134392 10.900867,6.88657726 10.900867,10.3957282 Z M22.4773725,10.3957282 C22.4773725,13.269273 20.1387961,15.6072441 17.2658566,15.6072441 C14.3921604,15.6072441 12.053584,13.269273 12.053584,10.3957282 C12.053584,7.52203201 14.3921604,5.18406095 17.2658566,5.18406095 C20.1387961,5.18406095 22.4773725,7.52203201 22.4773725,10.3957282 Z" id="Fill-4" fill="#4A5CA0"></path>
                    <g id="Group-8" transform="translate(0.000000, 0.000000)">
                        <mask id="mask-2" fill="white">
                            <use xlink:href="#path-1"></use>
                        </mask>
                        <g id="Clip-6"></g>
                        <path d="M11.1440787,12.5197119 C10.6675255,12.6556105 10.1840108,12.7247705 9.70866828,12.7247705 C6.83512343,12.7247705 4.49715238,10.3861941 4.49715238,7.51325459 C4.49715238,4.6391044 6.83512343,2.30158735 9.70866828,2.30158735 C11.277102,2.30158735 12.747168,2.9992407 13.7432536,4.21582102 L14.6359775,3.48563069 C13.4200025,2.00012846 11.6245666,1.14826497 9.70806294,1.14826497 C6.198458,1.14826497 3.34322466,4.00349832 3.34322466,7.51325459 C3.34322466,11.0228595 6.198458,13.8774875 9.70806294,13.8774875 C10.2910045,13.8774875 10.8804535,13.7936481 11.4603684,13.6280878 L11.1440787,12.5197119 Z" id="Fill-5" fill="#4A5CA0" mask="url(#mask-2)"></path>
                        <path d="M2.24423147,19.3208483 C2.24423147,17.057334 3.38453905,14.9705787 5.29393001,13.7391675 L4.66922002,12.7697169 C2.42870857,14.2157208 1.09090909,16.6641662 1.09090909,19.3208483 L1.09090909,23.6320736 L8.58546153,23.6320736 L8.58546153,22.4793566 L2.24423147,22.4793566 L2.24423147,19.3208483 Z" id="Fill-7" fill="#4A5CA0" mask="url(#mask-2)"></path>
                    </g>
                    <path d="M31.1877319,7.51325459 C31.1877319,4.00410365 28.3331039,1.14826497 24.8234989,1.14826497 C22.9076006,1.14826497 21.1115594,2.0007338 19.8955844,3.48563069 L20.7889136,4.21642635 C21.7843938,2.9992407 23.2550653,2.30158735 24.8234989,2.30158735 C27.6964385,2.30158735 30.0350148,4.63955841 30.0350148,7.51325459 C30.0350148,10.3867994 27.6964385,12.7247705 24.8234989,12.7247705 C24.3475511,12.7247705 23.8646418,12.6556105 23.3874832,12.5197119 L23.0701342,13.6280878 C23.650049,13.7936481 24.239952,13.8786982 24.8234989,13.8786982 C28.3331039,13.8780929 31.1877319,11.0228595 31.1877319,7.51325459 Z" id="Fill-9" fill="#4A5CA0"></path>
                    <path d="M29.9227244,12.7703223 L29.2978631,13.7403782 C31.2078594,14.9717893 32.348167,17.0579393 32.348167,19.3208483 L32.348167,22.4793566 L25.4298974,22.4793566 L25.4298974,23.632679 L33.5014894,23.632679 L33.5014894,19.3208483 C33.5014894,16.6641662 32.1638412,14.2157208 29.9227244,12.7703223 Z" id="Fill-10" fill="#4A5CA0"></path>
                </g>
            </g>
        </g>
    </g>
</svg>