<?xml version="1.0" encoding="UTF-8"?>
<svg width="30px" height="31px" viewBox="0 0 30 31" version="1.1" xmlns="http://www.w3.org/2000/svg" xmlns:xlink="http://www.w3.org/1999/xlink">
    <!-- Generator: Sketch 50.2 (55047) - http://www.bohemiancoding.com/sketch -->
    <title>010-wallet</title>
    <desc>Created with Sketch.</desc>
    <defs>
        <polygon id="path-1" points="0.00660883932 0.237051505 0.00660883932 31.6444589 31.0584616 31.6444589 31.0584616 0.237051505 0.00660883932 0.237051505"></polygon>
    </defs>
    <g id="Welcome" stroke="none" stroke-width="1" fill="none" fill-rule="evenodd">
        <g id="add_group_details_config" transform="translate(-800.000000, -1433.000000)">
            <g id="010-wallet" transform="translate(798.973343, 1432.327041)">
                <mask id="mask-2" fill="white">
                    <use xlink:href="#path-1"></use>
                </mask>
                <g id="Clip-2"></g>
                <path d="M30.3974666,14.9425857 L28.9818532,14.9425857 L28.9818532,8.4296847 C28.9818532,6.86823627 27.7117445,5.5981275 26.150296,5.5981275 L24.2326311,5.5981275 L22.2702465,2.06999862 C21.9711965,1.53082748 21.4019551,1.19608977 20.7849098,1.19608977 C20.4970949,1.19608977 20.2118133,1.27010877 19.9596861,1.40999587 L12.4288035,5.5981275 L4.01674239,5.5981275 C2.45529396,5.5981275 1.18518519,6.86823627 1.18518519,8.4296847 L1.18518519,27.8732204 C1.18518519,29.4342283 2.45529396,30.7048878 4.01674239,30.7048878 L26.150296,30.7048878 C27.7117445,30.7048878 28.9818532,29.4342283 28.9818532,27.8732204 L28.9818532,22.1628528 L30.3974666,22.1628528 L30.3974666,14.9425857 Z M26.150296,6.73055211 C27.0224425,6.73055211 27.734545,7.3931984 27.8304833,8.24122264 L25.702437,8.24122264 L24.8630043,6.73055211 L26.150296,6.73055211 Z M20.5108633,2.4 C20.7763183,2.25108082 21.1338565,2.35528019 21.2802423,2.61985405 L24.4064436,8.24034146 L10.0073248,8.24034146 L20.5108633,2.4 Z M27.848988,27.8732204 C27.848988,28.8099133 27.0869888,29.5719124 26.150296,29.5719124 L4.01674239,29.5719124 C3.08004957,29.5719124 2.3176098,28.8099133 2.3176098,27.8732204 L2.3176098,8.4296847 C2.3176098,7.49299188 3.08004957,6.73055211 4.01674239,6.73055211 L10.3923998,6.73055211 L7.67616687,8.24122264 L4.37086603,8.24122264 C4.05760705,8.24122264 3.80415806,8.49467162 3.80415806,8.80749002 C3.80415806,9.12030841 4.05760705,9.37364725 4.37086603,9.37364725 L27.848988,9.37364725 L27.848988,14.9430263 L23.7077792,14.9430263 C21.7844968,14.9430263 20.2191932,16.5083299 20.2191932,18.4316123 L20.2191932,18.675148 C20.2191932,20.5984304 21.7844968,22.163734 23.7077792,22.163734 L27.848988,22.163734 L27.848988,27.8732204 Z M29.265042,21.0303181 L23.7077792,21.0303181 C22.4083712,21.0303181 21.3516178,19.9736748 21.3516178,18.6742668 L21.3516178,18.4307311 C21.3516178,17.1317637 22.4083712,16.0750103 23.7077792,16.0750103 L29.265042,16.0750103 L29.265042,21.0303181 Z M25.4421589,18.5989261 C25.4421589,19.2899904 24.8828308,19.8493185 24.1917665,19.8493185 C23.5008123,19.8493185 22.9414842,19.2899904 22.9414842,18.5989261 C22.9414842,17.9084125 23.5012529,17.3486438 24.1917665,17.3486438 C24.8828308,17.3486438 25.4421589,17.9088531 25.4421589,18.5989261 Z" id="Fill-1" fill="#777777" mask="url(#mask-2)"></path>
            </g>
        </g>
    </g>
</svg>